<svg xmlns="http://www.w3.org/2000/svg" viewBox="0 0 42 35.5"><defs><style>.cls-1{fill:#3454d1;}</style></defs><title>Asset 10</title><g id="Layer_2" data-name="Layer 2"><g id="Layer_1-2" data-name="Layer 1"><g id="icons"><path class="cls-1" d="M32,0H10a1.5,1.5,0,0,0,0,3h.5V35a.5.5,0,0,0,.5.5H31a.5.5,0,0,0,.5-.5V3H32a1.5,1.5,0,0,0,0-3ZM19.5,31a.5.5,0,0,1-.5.5H14a.5.5,0,0,1-.5-.5V24.25a.5.5,0,0,1,.5-.5h5a.5.5,0,0,1,.5.5ZM17.56,18.41a1.25,1.25,0,0,1-.88.37,1.21,1.21,0,0,1-.88-.37,1.25,1.25,0,0,1,0-1.77l3.27-3.27L17.71,12a3.41,3.41,0,0,1-2.85-1.07c-1.25-1.25-1.48-3-.53-4s2.74-.72,4,.53a3.51,3.51,0,0,1,1.1,2.69l1.42,1.42,1.3-1.3A1.88,1.88,0,0,1,22.41,8l1.88-1.88a.78.78,0,0,1,1.1,1.1l-.48.48A1.11,1.11,0,0,0,26.48,9.3L27,8.82a.78.78,0,0,1,1.1,0h0a.78.78,0,0,1,0,1.1L26.18,11.8a1.87,1.87,0,0,1-2.28.28l-1.3,1.3,3.16,3.16a1.26,1.26,0,0,1-.88,2.14,1.21,1.21,0,0,1-.88-.37l-3.16-3.16ZM28.5,31a.5.5,0,0,1-.5.5H23a.5.5,0,0,1-.5-.5V24.25a.5.5,0,0,1,.5-.5h5a.5.5,0,0,1,.5.5Z"/><path class="cls-1" d="M7.5,11.5h-6A.5.5,0,0,0,1,12V35a.5.5,0,0,0,.5.5h6A.5.5,0,0,0,8,35V27.5H4a.5.5,0,0,1-.5-.5V24a.5.5,0,0,1,.5-.5H8v-4H4a.5.5,0,0,1-.5-.5V16a.5.5,0,0,1,.5-.5H8V12A.5.5,0,0,0,7.5,11.5ZM0,7.5A1.5,1.5,0,0,0,1.5,9H8V6H1.5A1.5,1.5,0,0,0,0,7.5ZM40.5,6H34V9h6.5a1.5,1.5,0,0,0,0-3Zm0,5.5h-6a.5.5,0,0,0-.5.5v3.5h4a.5.5,0,0,1,.5.5v3a.5.5,0,0,1-.5.5H34v4h4a.5.5,0,0,1,.5.5v3a.5.5,0,0,1-.5.5H34V35a.5.5,0,0,0,.5.5h6A.5.5,0,0,0,41,35V12A.5.5,0,0,0,40.5,11.5Z"/></g></g></g></svg>