<svg xmlns="http://www.w3.org/2000/svg" viewBox="0 0 42 35.5"><defs><style>.cls-1{fill:#3454d1;}</style></defs><title>Asset 12</title><g id="Layer_2" data-name="Layer 2"><g id="Layer_1-2" data-name="Layer 1"><g id="icons"><path class="cls-1" d="M32,0H10a1.5,1.5,0,0,0,0,3h.5V35a.5.5,0,0,0,.5.5H31a.5.5,0,0,0,.5-.5V3H32a1.5,1.5,0,0,0,0-3ZM19.5,31a.5.5,0,0,1-.5.5H14a.5.5,0,0,1-.5-.5V24.25a.5.5,0,0,1,.5-.5h5a.5.5,0,0,1,.5.5Zm.89-12.33a11.29,11.29,0,0,1-5.51-9.62.62.62,0,0,1,.56-.64A10.21,10.21,0,0,0,20.29,5.9a.62.62,0,0,1,.81,0A10.25,10.25,0,0,0,26,8.41a.63.63,0,0,1,.56.64A11.27,11.27,0,0,1,21,18.67.61.61,0,0,1,20.39,18.67ZM28.5,31a.5.5,0,0,1-.5.5H23a.5.5,0,0,1-.5-.5V24.25a.5.5,0,0,1,.5-.5h5a.5.5,0,0,1,.5.5Z"/><path class="cls-1" d="M0,7.5A1.5,1.5,0,0,0,1.5,9H8V6H1.5A1.5,1.5,0,0,0,0,7.5Zm7.5,4h-6A.5.5,0,0,0,1,12V35a.5.5,0,0,0,.5.5h6A.5.5,0,0,0,8,35V27.5H4a.5.5,0,0,1-.5-.5V24a.5.5,0,0,1,.5-.5H8v-4H4a.5.5,0,0,1-.5-.5V16a.5.5,0,0,1,.5-.5H8V12A.5.5,0,0,0,7.5,11.5Zm13.2-1.25a2,2,0,1,0,2,2A2,2,0,0,0,20.7,10.25ZM40.5,11.5h-6a.5.5,0,0,0-.5.5v3.5h4a.5.5,0,0,1,.5.5v3a.5.5,0,0,1-.5.5H34v4h4a.5.5,0,0,1,.5.5v3a.5.5,0,0,1-.5.5H34V35a.5.5,0,0,0,.5.5h6A.5.5,0,0,0,41,35V12A.5.5,0,0,0,40.5,11.5Zm0-5.5H34V9h6.5a1.5,1.5,0,0,0,0-3Z"/></g></g></g></svg>