<svg xmlns="http://www.w3.org/2000/svg" viewBox="0 0 42 35.5"><defs><style>.cls-1{fill:#3454d1;}</style></defs><title>Asset 8</title><g id="Layer_2" data-name="Layer 2"><g id="Layer_1-2" data-name="Layer 1"><g id="icons"><path class="cls-1" d="M32,0H10a1.5,1.5,0,0,0,0,3h.5V35a.5.5,0,0,0,.5.5H31a.5.5,0,0,0,.5-.5V3H32a1.5,1.5,0,0,0,0-3ZM23.7,33a.5.5,0,0,1-.5.5H18.82a.5.5,0,0,1-.5-.5V25.25a.5.5,0,0,1,.5-.5H23.2a.5.5,0,0,1,.5.5Zm4.9-13.75a.5.5,0,0,1-.5.5H13.91a.5.5,0,0,1-.5-.5v-4a.5.5,0,0,1,.5-.5H28.1a.5.5,0,0,1,.5.5Zm0-9a.5.5,0,0,1-.5.5H13.91a.5.5,0,0,1-.5-.5v-4a.5.5,0,0,1,.5-.5H28.1a.5.5,0,0,1,.5.5Z"/><path class="cls-1" d="M0,7.5A1.5,1.5,0,0,0,1.5,9H8V6H1.5A1.5,1.5,0,0,0,0,7.5Zm7.5,4h-6A.5.5,0,0,0,1,12V35a.5.5,0,0,0,.5.5h6A.5.5,0,0,0,8,35V27.5H4a.5.5,0,0,1-.5-.5V24a.5.5,0,0,1,.5-.5H8v-4H4a.5.5,0,0,1-.5-.5V16a.5.5,0,0,1,.5-.5H8V12A.5.5,0,0,0,7.5,11.5ZM40.5,6H34V9h6.5a1.5,1.5,0,0,0,0-3Zm0,5.5h-6a.5.5,0,0,0-.5.5v3.5h4a.5.5,0,0,1,.5.5v3a.5.5,0,0,1-.5.5H34v4h4a.5.5,0,0,1,.5.5v3a.5.5,0,0,1-.5.5H34V35a.5.5,0,0,0,.5.5h6A.5.5,0,0,0,41,35V12A.5.5,0,0,0,40.5,11.5Z"/></g></g></g></svg>