<svg id="Layer_3" enable-background="new 0 0 64 64" height="512" viewBox="0 0 64 64" width="512"
    xmlns="http://www.w3.org/2000/svg">
    <g>
        <path
            d="m58 39h-13v-4.031c.333.019.667.031 1 .031 9.374 0 17-7.626 17-17s-7.626-17-17-17c-5.84 0-11.254 3.002-14.36 7.898l-3.149-1.77c-.366-.207-.821-.161-1.141.112-.319.273-.434.717-.286 1.11l3 8c.179.476.682.739 1.179.619l8-2c.395-.099.689-.425.747-.827.059-.401-.132-.799-.481-1.005l-2.501-1.473c2.048-2.899 5.41-4.664 8.992-4.664 6.065 0 11 4.935 11 11s-4.935 11-11 11c-.334 0-.668-.018-1-.048v-10.952c0-.552-.447-1-1-1h-28c-.553 0-1 .448-1 1v21h-13c-.553 0-1 .448-1 1v22c0 .552.447 1 1 1h28 28c.553 0 1-.448 1-1v-22c0-.552-.447-1-1-1zm-17 2h3 3v6h-6zm5-10c7.168 0 13-5.832 13-13s-5.832-13-13-13c-4.626 0-8.94 2.49-11.26 6.499-.275.476-.115 1.084.357 1.363l1.291.76-4.766 1.191-1.725-4.599 1.611.906c.232.13.509.162.763.09.256-.072.473-.244.602-.477 2.648-4.77 7.677-7.733 13.127-7.733 8.271 0 15 6.729 15 15s-6.729 15-15 15c-.333 0-.667-.013-1-.035v-2.007c.332.026.666.042 1 .042zm-19-12h6v6h-6zm-10 0h8v7c0 .552.447 1 1 1h8c.553 0 1-.448 1-1v-7h8v20h-13-13zm-4 22h3 3v6h-6zm-10 0h8v7c0 .552.447 1 1 1h8c.553 0 1-.448 1-1v-7h8v20h-26zm54 20h-26v-20h8v7c0 .552.447 1 1 1h8c.553 0 1-.448 1-1v-7h8z" />
        <path
            d="m30 33c0-.552-.447-1-1-1h-10c-.553 0-1 .448-1 1v4c0 .552.447 1 1 1h10c.553 0 1-.448 1-1zm-2 3h-8v-2h8z" />
        <path d="m40 33h2v5h-2z" />
        <path d="m37 33h2v5h-2z" />
        <path d="m34 33h2v5h-2z" />
        <path
            d="m15 54h-10c-.553 0-1 .448-1 1v4c0 .552.447 1 1 1h10c.553 0 1-.448 1-1v-4c0-.552-.447-1-1-1zm-1 4h-8v-2h8z" />
        <path d="m26 55h2v5h-2z" />
        <path d="m23 55h2v5h-2z" />
        <path d="m20 55h2v5h-2z" />
        <path
            d="m43 54h-10c-.553 0-1 .448-1 1v4c0 .552.447 1 1 1h10c.553 0 1-.448 1-1v-4c0-.552-.447-1-1-1zm-1 4h-8v-2h8z" />
        <path d="m54 55h2v5h-2z" />
        <path d="m51 55h2v5h-2z" />
        <path d="m48 55h2v5h-2z" />
    </g>
</svg>