<?xml version="1.0"?>
<svg xmlns="http://www.w3.org/2000/svg" viewBox="0 0 64 64" width="512" height="512">
    <g id="Free_delivery" data-name="Free delivery">
        <path
            d="M61,53H60V42a9.01,9.01,0,0,0-9-9H44V22a1,1,0,0,0-1-1H3a1,1,0,0,0-1,1V54a1,1,0,0,0,1,1H4v1a3,3,0,0,0,3,3h4.812a5.986,5.986,0,0,0,10.376,0H45.812a5.986,5.986,0,0,0,10.376,0H59a3,3,0,0,0,3-3V54A1,1,0,0,0,61,53ZM58,42v2H49a1,1,0,0,1-1-1V35h3A7.008,7.008,0,0,1,58,42ZM46,35v8a3,3,0,0,0,3,3h9v7H56.188a5.986,5.986,0,0,0-10.376,0H44V35ZM22.188,53a5.986,5.986,0,0,0-10.376,0H4V49H42v4ZM4,23H42V47H4ZM7,57a1,1,0,0,1-1-1V55h5.09a5.6,5.6,0,0,0,0,2Zm10,3a4,4,0,1,1,4-4A4,4,0,0,1,17,60Zm5.91-3a5.6,5.6,0,0,0,0-2H45.09a5.6,5.6,0,0,0,0,2ZM51,60a4,4,0,1,1,4-4A4,4,0,0,1,51,60Zm9-4a1,1,0,0,1-1,1H56.91a5.6,5.6,0,0,0,0-2H60Z" />
        <path d="M10,38a1,1,0,0,0,1-1V34h2a1,1,0,0,0,0-2H11V30h3a1,1,0,0,0,0-2H10a1,1,0,0,0-1,1v8A1,1,0,0,0,10,38Z" />
        <path
            d="M17,38a1,1,0,0,0,1-1V34.667L20.2,37.6a1,1,0,1,0,1.6-1.2l-1.912-2.549A2.992,2.992,0,0,0,19,28H17a1,1,0,0,0-1,1v8A1,1,0,0,0,17,38Zm3-7a1,1,0,0,1-1,1H18V30h1A1,1,0,0,1,20,31Z" />
        <path
            d="M25,38h4a1,1,0,0,0,0-2H26V34h2a1,1,0,0,0,0-2H26V30h3a1,1,0,0,0,0-2H25a1,1,0,0,0-1,1v8A1,1,0,0,0,25,38Z" />
        <path
            d="M32,38h4a1,1,0,0,0,0-2H33V34h2a1,1,0,0,0,0-2H33V30h3a1,1,0,0,0,0-2H32a1,1,0,0,0-1,1v8A1,1,0,0,0,32,38Z" />
        <path d="M39,40H7a1,1,0,0,0,0,2H39a1,1,0,0,0,0-2Z" />
    </g>
</svg>