<svg xmlns="http://www.w3.org/2000/svg" viewBox="0 0 42 35.5"><defs><style>.cls-1{fill:#ffffff;}</style></defs><title>Asset 16</title><g id="Layer_2" data-name="Layer 2"><g id="Layer_1-2" data-name="Layer 1"><g id="icons"><path class="cls-1" d="M32,0H10a1.5,1.5,0,0,0,0,3h.5V35a.5.5,0,0,0,.5.5H31a.5.5,0,0,0,.5-.5V3H32a1.5,1.5,0,0,0,0-3ZM16.38,7.33H26a1,1,0,0,1,.91.6l-6,4.18L15.45,8A1,1,0,0,1,16.38,7.33Zm-1,3.72,4.78,3.6a1.23,1.23,0,0,0,.75.25,1.28,1.28,0,0,0,.72-.23L27,10.91v4.25a1,1,0,0,1-1,1H16.38a1,1,0,0,1-1-1ZM19.5,31a.5.5,0,0,1-.5.5H14a.5.5,0,0,1-.5-.5V24.25a.5.5,0,0,1,.5-.5h5a.5.5,0,0,1,.5.5Zm9,0a.5.5,0,0,1-.5.5H23a.5.5,0,0,1-.5-.5V24.25a.5.5,0,0,1,.5-.5h5a.5.5,0,0,1,.5.5Z"/><path class="cls-1" d="M40.5,6H34V9h6.5a1.5,1.5,0,0,0,0-3ZM0,7.5A1.5,1.5,0,0,0,1.5,9H8V6H1.5A1.5,1.5,0,0,0,0,7.5Zm7.5,4h-6A.5.5,0,0,0,1,12V35a.5.5,0,0,0,.5.5h6A.5.5,0,0,0,8,35V27.5H4a.5.5,0,0,1-.5-.5V24a.5.5,0,0,1,.5-.5H8v-4H4a.5.5,0,0,1-.5-.5V16a.5.5,0,0,1,.5-.5H8V12A.51.51,0,0,0,7.5,11.5Zm33,0h-6a.5.5,0,0,0-.5.5v3.5h4a.5.5,0,0,1,.5.5v3a.5.5,0,0,1-.5.5H34v4h4a.5.5,0,0,1,.5.5v3a.5.5,0,0,1-.5.5H34V35a.5.5,0,0,0,.5.5h6A.5.5,0,0,0,41,35V12A.5.5,0,0,0,40.5,11.5Z"/></g></g></g></svg>