<svg xmlns="http://www.w3.org/2000/svg" viewBox="0 0 43.11 43.08">
    <defs>
        <style>.cls-1{fill:#3454d1;}</style>
    </defs>
    <title>OBJECTS2</title>
    <g id="Layer_2" data-name="Layer 2">
        <g id="Layer_1-2" data-name="Layer 1">
            <g id="OBJECTS">
                <path class="cls-1"
                      d="M17.59,39.1a13.64,13.64,0,0,0,19.26,0,5.74,5.74,0,0,0,0-8.1l-4.48-4.48a5.87,5.87,0,0,0-8.1,0l-.43.43-7.71-7.71.43-.43a5.72,5.72,0,0,0,0-8.1L12.08,6.23a5.74,5.74,0,0,0-8.1,0A13.65,13.65,0,0,0,4,25.5ZM7.46,9.7a.82.82,0,0,1,1.16,0l4.48,4.49a.82.82,0,0,1,0,1.16l-2.17,2.17a2.45,2.45,0,0,0,0,3.47L22.11,32.17a2.45,2.45,0,0,0,3.47,0L27.75,30a.69.69,0,0,1,1.16,0l4.48,4.48a.82.82,0,0,1,0,1.16,8.73,8.73,0,0,1-12.33,0L7.46,22A8.74,8.74,0,0,1,7.46,9.7Zm13.22,2.57a2.45,2.45,0,0,1,2.45-2.45A10.17,10.17,0,0,1,33.29,20a2.45,2.45,0,0,1-4.9,0,5.26,5.26,0,0,0-5.25-5.25A2.46,2.46,0,0,1,20.68,12.27Zm0-9.82A2.45,2.45,0,0,1,23.13,0a20,20,0,0,1,20,20,2.45,2.45,0,0,1-4.9,0A15.09,15.09,0,0,0,23.14,4.91,2.47,2.47,0,0,1,20.68,2.45Z"/>
            </g>
        </g>
    </g>
</svg>