<svg xmlns="http://www.w3.org/2000/svg" viewBox="0 0 28.35 46.48">
    <defs>
        <style>.cls-1{fill:#3454d1;}</style>
    </defs>
    <title>gps</title>
    <g id="Layer_2" data-name="Layer 2">
        <g id="Layer_1-2" data-name="Layer 1">
            <g id="OBJECTS">
                <path class="cls-1"
                      d="M14.18,0A14.19,14.19,0,0,0,0,14.18C0,24.29,12.05,35,12.56,35.42a2.45,2.45,0,0,0,3.32-.08C17.16,34.11,28.35,23,28.35,14.18A14.18,14.18,0,0,0,14.18,0Zm-.07,30.13c-3.57-3.58-9.2-10.41-9.2-15.95a9.27,9.27,0,0,1,18.54,0C23.45,19.08,17.7,26.28,14.11,30.13ZM24,44a2.45,2.45,0,0,1-2.45,2.45H6.77a2.45,2.45,0,0,1,0-4.9H21.59A2.44,2.44,0,0,1,24,44Zm-8.12-31.6a2.45,2.45,0,0,1,.72,1.73,2.4,2.4,0,0,1-.72,1.74,2.45,2.45,0,0,1-1.74.72,3.32,3.32,0,0,1-.95-.16,2.54,2.54,0,0,1-.78-.56,2.4,2.4,0,0,1-.72-1.74,2.45,2.45,0,0,1,.72-1.73,2.46,2.46,0,0,1,2.68-.52A2.41,2.41,0,0,1,15.92,12.43Z"/>
            </g>
        </g>
    </g>
</svg>