<svg xmlns="http://www.w3.org/2000/svg" viewBox="0 0 39.49 37.95"><defs><style>.cls-1{fill:#ffffff;}</style></defs><title>Asset 14</title><g id="Layer_2" data-name="Layer 2"><g id="Layer_1-2" data-name="Layer 1"><g id="icons"><path class="cls-1" d="M9.47.36a1.5,1.5,0,0,0-2,0l-7,6a1.5,1.5,0,0,0,2,2.28l6-5.16,6,5.16a1.5,1.5,0,0,0,1,.36,1.52,1.52,0,0,0,1.14-.52,1.5,1.5,0,0,0-.16-2.12Zm28,22.86h-19a.5.5,0,0,0-.5.5V37.45a.5.5,0,0,0,.5.5h19a.5.5,0,0,0,.5-.5V23.72A.5.5,0,0,0,37.42,23.22ZM26.49,33.59a.5.5,0,0,1-.5.5H22a.5.5,0,0,1-.5-.5v-4a2.5,2.5,0,0,1,5,0Zm8,0a.5.5,0,0,1-.5.5H30a.5.5,0,0,1-.5-.5v-4a2.5,2.5,0,0,1,5,0Z"/><path class="cls-1" d="M39,12.72H18a.5.5,0,0,0-.5.5v7a.5.5,0,0,0,.5.5H39a.5.5,0,0,0,.5-.5v-7A.5.5,0,0,0,39,12.72ZM8.82,6.23a.5.5,0,0,0-.65,0L1.67,11.8a.5.5,0,0,0-.17.38V37.45A.5.5,0,0,0,2,38H15a.5.5,0,0,0,.5-.5V12.18a.5.5,0,0,0-.17-.38ZM11,35.31a.5.5,0,0,1-.5.5h-4a.5.5,0,0,1-.5-.5V27.73a.5.5,0,0,1,.5-.5h4a.5.5,0,0,1,.5.5ZM8.49,17.72a2.5,2.5,0,1,1,2.5-2.5A2.5,2.5,0,0,1,8.49,17.72Z"/></g></g></g></svg>