<svg xmlns="http://www.w3.org/2000/svg" viewBox="0 0 27.24 19.66">
    <title>Asset 1</title>
    <g id="Layer_2" data-name="Layer 2">
        <g id="Layer_1-2" data-name="Layer 1">
            <path fill="#3454d1" d="M5.77,12.71a20.61,20.61,0,0,1-2,6.11.56.56,0,0,0,.76.76c5.7-3.32,8.2-8.16,8.51-12A7,7,0,0,0,7.51.1,6.37,6.37,0,1,0,5.77,12.71Z" />
            <path fill="#3454d1" d="M20,12.71a20.61,20.61,0,0,1-2,6.11.56.56,0,0,0,.76.76c5.7-3.32,8.2-8.16,8.51-12A7,7,0,0,0,21.73.1,6.37,6.37,0,1,0,20,12.71Z" />
        </g>
    </g>
</svg>
