<?xml version="1.0"?>
<svg xmlns="http://www.w3.org/2000/svg" id="Layer_3" enable-background="new 0 0 64 64" height="512px" viewBox="0 0 64 64" width="512px" class=""><g><path d="m39.954 60.926-7.954-12.926c-4.328 0-8.248-1.726-11.129-4.518l-3.866 14.498c4.413 2.552 9.531 4.02 14.995 4.02 2.755 0 5.42-.379 7.954-1.074z" fill="#f4b2b0" data-original="#F4B2B0" class="active-path" data-old_color="#f4b2b0" style="fill:#1A9FEA"/><path d="m24.046 3.074 7.954 12.926c4.328 0 8.248 1.726 11.129 4.518l3.866-14.498c-4.413-2.552-9.531-4.02-14.995-4.02-2.755 0-5.42.379-7.954 1.074z" fill="#f4b2b0" data-original="#F4B2B0" class="active-path" data-old_color="#f4b2b0" style="fill:#1A9FEA"/><path d="m62 32c0-2.755-.379-5.42-1.074-7.954l-12.926 7.954c0 4.328-1.726 8.248-4.518 11.129l14.498 3.866c2.552-4.413 4.02-9.531 4.02-14.995z" fill="#f4b2b0" data-original="#F4B2B0" class="active-path" data-old_color="#f4b2b0" style="fill:#1A9FEA"/><path d="m20.518 20.871-14.498-3.866c-2.552 4.413-4.02 9.531-4.02 14.995 0 2.755.379 5.42 1.074 7.954l12.926-7.954c0-4.328 1.726-8.248 4.518-11.129z" fill="#f4b2b0" data-original="#F4B2B0" class="active-path" data-old_color="#f4b2b0" style="fill:#1A9FEA"/><g fill="#b3404a"><path d="m32 1c-17.094 0-31 13.906-31 31s13.906 31 31 31 31-13.906 31-31-13.906-31-31-31zm27.753 22.593-10.841 6.671c-.395-3.879-2.109-7.368-4.673-10.033l3.373-12.65c5.749 3.688 10.117 9.343 12.141 16.012zm-27.753 23.407c-8.271 0-15-6.729-15-15s6.729-15 15-15 15 6.729 15 15-6.729 15-15 15zm13.828-40.485-3.253 12.198c-2.764-2.205-6.226-3.556-9.998-3.684l-6.962-11.312c2.056-.464 4.191-.717 6.385-.717 5.004 0 9.715 1.274 13.828 3.515zm-22.235-2.268 6.671 10.841c-3.879.395-7.368 2.109-10.033 4.673l-12.65-3.373c3.688-5.749 9.343-10.117 16.012-12.141zm-17.078 13.925 12.198 3.253c-2.205 2.764-3.556 6.226-3.684 9.998l-11.312 6.962c-.464-2.056-.717-4.191-.717-6.385 0-5.004 1.274-9.715 3.515-13.828zm-2.268 22.235 10.841-6.671c.395 3.879 2.109 7.368 4.673 10.033l-3.373 12.65c-5.749-3.688-10.117-9.343-12.141-16.012zm13.925 17.078 3.253-12.198c2.764 2.205 6.226 3.556 9.998 3.684l6.961 11.312c-2.055.464-4.19.717-6.384.717-5.004 0-9.715-1.274-13.828-3.515zm22.235 2.268-6.671-10.841c3.879-.395 7.368-2.109 10.033-4.673l12.65 3.373c-3.688 5.749-9.343 10.117-16.012 12.141zm17.078-13.925-12.198-3.253c2.205-2.764 3.556-6.226 3.684-9.998l11.312-6.961c.464 2.055.717 4.19.717 6.384 0 5.004-1.274 9.715-3.515 13.828z" data-original="#000000" class="" data-old_color="#000000" style="fill:#052032"/><path d="m32 23c-4.963 0-9 4.037-9 9s4.037 9 9 9 9-4.037 9-9-4.037-9-9-9zm0 16c-3.859 0-7-3.141-7-7s3.141-7 7-7 7 3.141 7 7-3.141 7-7 7z" data-original="#000000" class="" data-old_color="#000000" style="fill:#052032"/><path d="m32 27c-2.757 0-5 2.243-5 5s2.243 5 5 5 5-2.243 5-5-2.243-5-5-5zm0 8c-1.654 0-3-1.346-3-3s1.346-3 3-3 3 1.346 3 3-1.346 3-3 3z" data-original="#000000" class="" data-old_color="#000000" style="fill:#052032"/><path d="m31 43h2v2h-2z" data-original="#000000" class="" data-old_color="#000000" style="fill:#052032"/><path d="m31 19h2v2h-2z" data-original="#000000" class="" data-old_color="#000000" style="fill:#052032"/><path d="m19 31h2v2h-2z" data-original="#000000" class="" data-old_color="#000000" style="fill:#052032"/><path d="m43 31h2v2h-2z" data-original="#000000" class="" data-old_color="#000000" style="fill:#052032"/></g></g> </svg>
