<?xml version="1.0"?>
<svg xmlns="http://www.w3.org/2000/svg" id="Layer_3" enable-background="new 0 0 64 64" height="512px" viewBox="0 0 64 64" width="512px" class=""><g><path d="m32 16v.343c0 2.341.93 4.587 2.586 6.243.905.905 1.414 2.133 1.414 3.414 0 2.209-1.791 4-4 4s-4-1.791-4-4c0-1.281.509-2.509 1.414-3.414 1.656-1.656 2.586-3.901 2.586-6.243z" fill="#f4b2b0" data-original="#F4B2B0" class="" data-old_color="#f4b2b0" style="fill:#1AA9EA"/><path d="m46 16v.343c0 2.341.93 4.587 2.586 6.243.905.905 1.414 2.133 1.414 3.414 0 2.209-1.791 4-4 4s-4-1.791-4-4c0-1.281.509-2.509 1.414-3.414 1.656-1.656 2.586-3.901 2.586-6.243z" fill="#f4b2b0" data-original="#F4B2B0" class="" data-old_color="#f4b2b0" style="fill:#1AA9EA"/><path d="m18 16v.343c0 2.341.93 4.587 2.586 6.243.905.905 1.414 2.133 1.414 3.414 0 2.209-1.791 4-4 4s-4-1.791-4-4c0-1.281.509-2.509 1.414-3.414 1.656-1.656 2.586-3.901 2.586-6.243z" fill="#f4b2b0" data-original="#F4B2B0" class="" data-old_color="#f4b2b0" style="fill:#1AA9EA"/><g fill="#b3404a"><path d="m62 1h-60c-.553 0-1 .448-1 1v6c0 .552.447 1 1 1h1v52h-2v2h62v-2h-2v-52h1c.553 0 1-.448 1-1v-6c0-.552-.447-1-1-1zm-57 8h2v52h-2zm26 2v-2h2v2zm-2 0h-18v2h42v-2h-18v-2h20v52h-46v-52h20zm30 50h-2v-52h2zm2-54h-58v-4h58z" data-original="#000000" class="active-path" style="fill:#052032" data-old_color="#000000"/><path d="m25 49h14v2h-14z" data-original="#000000" class="active-path" style="fill:#052032" data-old_color="#000000"/><path d="m12 47h1v3c0 1.627.793 3.061 2 3.974v4.026c0 .552.447 1 1 1h6c.553 0 1-.448 1-1v-3h18v3c0 .552.447 1 1 1h6c.553 0 1-.448 1-1v-4.026c1.207-.914 2-2.348 2-3.974v-3h1c.553 0 1-.448 1-1v-4c0-.552-.447-1-1-1h-4c-.266 0-.52.105-.707.293l-1.019 1.019-3.274-6.548c-.853-1.705-2.566-2.764-4.472-2.764h-13.056c-1.905 0-3.619 1.059-4.472 2.764l-3.274 6.548-1.019-1.019c-.187-.188-.441-.293-.707-.293h-4c-.553 0-1 .448-1 1v4c0 .552.447 1 1 1zm37 2h-6v-1.279l4.923-1.641 1.077.538zm-7.316-2.949c-.409.137-.684.518-.684.949v3c0 .552.447 1 1 1h6.816c-.414 1.161-1.514 2-2.816 2h-28c-1.302 0-2.402-.839-2.816-2h6.816c.553 0 1-.448 1-1v-3c0-.431-.275-.812-.684-.949l-3.153-1.051h25.675zm-25.607.029 4.923 1.641v1.279h-6v-2.382zm4.923 10.92h-4v-2.101c.323.066.658.101 1 .101h3zm26 0h-4v-2h3c.342 0 .677-.035 1-.101zm1.414-14h2.586v2h-.764l-2.548-1.274zm-25.625-6.342c.512-1.023 1.539-1.658 2.683-1.658h13.057c1.144 0 2.171.635 2.683 1.658l3.17 6.342h-24.764zm-9.789 6.342h2.586l.726.726-2.548 1.274h-.764z" data-original="#000000" class="active-path" style="fill:#052032" data-old_color="#000000"/><path d="m32 31c2.757 0 5-2.243 5-5 0-1.557-.606-3.021-1.707-4.121-1.479-1.479-2.293-3.444-2.293-5.536v-.343c0-.552-.447-1-1-1s-1 .448-1 1v.343c0 2.091-.814 4.057-2.293 5.536-1.101 1.1-1.707 2.564-1.707 4.121 0 2.757 2.243 5 5 5zm-1.879-7.707c.777-.776 1.408-1.661 1.879-2.619.471.958 1.102 1.842 1.879 2.619.723.723 1.121 1.685 1.121 2.707 0 1.654-1.346 3-3 3s-3-1.346-3-3c0-1.022.398-1.984 1.121-2.707z" data-original="#000000" class="active-path" style="fill:#052032" data-old_color="#000000"/><path d="m46 31c2.757 0 5-2.243 5-5 0-1.557-.606-3.021-1.707-4.121-1.479-1.479-2.293-3.444-2.293-5.536v-.343c0-.552-.447-1-1-1s-1 .448-1 1v.343c0 2.091-.814 4.057-2.293 5.536-1.101 1.1-1.707 2.564-1.707 4.121 0 2.757 2.243 5 5 5zm-1.879-7.707c.777-.776 1.408-1.661 1.879-2.619.471.958 1.102 1.842 1.879 2.619.723.723 1.121 1.685 1.121 2.707 0 1.654-1.346 3-3 3s-3-1.346-3-3c0-1.022.398-1.984 1.121-2.707z" data-original="#000000" class="active-path" style="fill:#052032" data-old_color="#000000"/><path d="m18 31c2.757 0 5-2.243 5-5 0-1.557-.606-3.021-1.707-4.121-1.479-1.479-2.293-3.444-2.293-5.536v-.343c0-.552-.447-1-1-1s-1 .448-1 1v.343c0 2.091-.814 4.057-2.293 5.536-1.101 1.1-1.707 2.564-1.707 4.121 0 2.757 2.243 5 5 5zm-1.879-7.707c.777-.776 1.408-1.661 1.879-2.619.471.958 1.102 1.842 1.879 2.619.723.723 1.121 1.685 1.121 2.707 0 1.654-1.346 3-3 3s-3-1.346-3-3c0-1.022.398-1.984 1.121-2.707z" data-original="#000000" class="active-path" style="fill:#052032" data-old_color="#000000"/></g></g> </svg>
