<?xml version="1.0"?>
<svg xmlns="http://www.w3.org/2000/svg" id="Layer_3" enable-background="new 0 0 64 64" height="512px" viewBox="0 0 64 64" width="512px" class=""><g><path d="m34 7c2.761 0 5 2.239 5 5 0-2.761 2.239-5 5-5-2.761 0-5-2.239-5-5 0 2.761-2.239 5-5 5z" fill="#f4b2b0" data-original="#F4B2B0" class="" data-old_color="#f4b2b0" style="fill:#1A9FEA"/><path d="m52 7c2.761 0 5 2.239 5 5 0-2.761 2.239-5 5-5-2.761 0-5-2.239-5-5 0 2.761-2.239 5-5 5z" fill="#f4b2b0" data-original="#F4B2B0" class="" data-old_color="#f4b2b0" style="fill:#1A9FEA"/><path d="m46 17c2.761 0 5 2.239 5 5 0-2.761 2.239-5 5-5-2.761 0-5-2.239-5-5 0 2.761-2.239 5-5 5z" fill="#f4b2b0" data-original="#F4B2B0" class="" data-old_color="#f4b2b0" style="fill:#1A9FEA"/><g fill="#b3404a"><path d="m1 61v2h62v-2h-16-30z" data-original="#000000" class="active-path" data-old_color="#000000" style="fill:#052032"/><path d="m17 49c-2.206 0-4 1.794-4 4s1.794 4 4 4 4-1.794 4-4-1.794-4-4-4zm0 6c-1.103 0-2-.897-2-2s.897-2 2-2 2 .897 2 2-.897 2-2 2z" data-original="#000000" class="active-path" data-old_color="#000000" style="fill:#052032"/><path d="m47 49c-2.206 0-4 1.794-4 4s1.794 4 4 4 4-1.794 4-4-1.794-4-4-4zm0 6c-1.103 0-2-.897-2-2s.897-2 2-2 2 .897 2 2-.897 2-2 2z" data-original="#000000" class="active-path" data-old_color="#000000" style="fill:#052032"/><path d="m62.447 40.105-7.794-3.897-8.059-10.477c-1.316-1.71-3.39-2.731-5.549-2.731h-11.782c1.137-2.146 1.737-4.528 1.737-7 0-2.249-.486-4.412-1.444-6.429l-1.807.858c.83 1.747 1.251 3.621 1.251 5.571 0 2.665-.803 5.21-2.311 7.386-1.287.443-2.441 1.251-3.283 2.346l-1.36 1.767c-1.852.976-3.936 1.501-6.046 1.501-3.076 0-5.979-1.057-8.308-3h3.308v-2h-5c-.552 0-1 .448-1 1v5h2v-2.019c2.582 1.95 5.701 3.019 9 3.019 1.255 0 2.504-.158 3.712-.466l-4.281 5.565-9.688 2.076c-2.748.589-4.743 3.056-4.743 5.867v6.958c0 1.654 1.346 3 3 3h5.069c.495 3.94 3.859 7 7.931 7s7.436-3.06 7.931-7h14.139c.495 3.94 3.859 7 7.931 7s7.436-3.06 7.931-7h5.068c1.654 0 3-1.346 3-3v-10c0-.379-.214-.725-.553-.895zm-1.447 7.895h-2v-7.382l2 1zm-57.996-4h1.996v2h-2v-1.958c0-.014.004-.028.004-.042zm13.996 15c-3.309 0-6-2.691-6-6s2.691-6 6-6 6 2.691 6 6-2.691 6-6 6zm30 0c-3.309 0-6-2.691-6-6s2.691-6 6-6 6 2.691 6 6-2.691 6-6 6zm13-7h-5.069c-.495-3.94-3.859-7-7.931-7s-7.436 3.06-7.931 7h-14.138c-.495-3.94-3.859-7-7.931-7s-7.436 3.06-7.931 7h-5.069c-.551 0-1-.449-1-1v-3h3c.552 0 1-.448 1-1v-4c0-.552-.448-1-1-1h-2.425c.557-.93 1.477-1.631 2.587-1.869l10.048-2.153c.232-.05.438-.18.583-.368l8.199-10.658c.939-1.223 2.421-1.952 3.963-1.952h12.091c1.542 0 3.023.729 3.963 1.952l8.199 10.658c.092.12.21.217.345.285l3.447 1.723v9.382c0 .552.448 1 1 1h3v1c0 .551-.449 1-1 1z" data-original="#000000" class="active-path" data-old_color="#000000" style="fill:#052032"/><path d="m49.887 38.462c.172-.331.146-.73-.068-1.035l-6.104-8.72c-.747-1.069-1.972-1.707-3.277-1.707h-10.876c-1.305 0-2.53.638-3.277 1.707l-6.104 8.72c-.214.305-.24.704-.068 1.035.172.33.514.538.887.538h28c.373 0 .715-.208.887-.538zm-21.963-8.609c.373-.534.986-.853 1.638-.853h4.438v8h-11.079zm8.076 7.147v-8h4.438c.652 0 1.265.319 1.638.853l5.003 7.147z" data-original="#000000" class="active-path" data-old_color="#000000" style="fill:#052032"/><path d="m32 41h4v2h-4z" data-original="#000000" class="active-path" data-old_color="#000000" style="fill:#052032"/><path d="m46 41h4v2h-4z" data-original="#000000" class="active-path" data-old_color="#000000" style="fill:#052032"/><path d="m4.25 21.571c-.829-1.747-1.25-3.621-1.25-5.571 0-7.168 5.832-13 13-13 3.076 0 5.979 1.057 8.308 3h-3.308v2h5c.552 0 1-.448 1-1v-5h-2v2.019c-2.582-1.95-5.701-3.019-9-3.019-8.271 0-15 6.729-15 15 0 2.249.486 4.412 1.444 6.429z" data-original="#000000" class="active-path" data-old_color="#000000" style="fill:#052032"/><path d="m14.805 20.155-3.024-3.779-1.562 1.249 4 5c.191.238.479.375.781.375.035 0 .07-.002.105-.005.339-.036.636-.242.789-.547l6-12-1.789-.895z" data-original="#000000" class="active-path" data-old_color="#000000" style="fill:#052032"/><path d="m34 8c2.206 0 4 1.794 4 4 0 .552.448 1 1 1s1-.448 1-1c0-2.206 1.794-4 4-4 .552 0 1-.448 1-1s-.448-1-1-1c-2.206 0-4-1.794-4-4 0-.552-.448-1-1-1s-1 .448-1 1c0 2.206-1.794 4-4 4-.552 0-1 .448-1 1s.448 1 1 1zm5-2.687c.444.668 1.019 1.243 1.687 1.687-.668.444-1.243 1.019-1.687 1.687-.444-.668-1.019-1.243-1.687-1.687.668-.444 1.243-1.019 1.687-1.687z" data-original="#000000" class="active-path" data-old_color="#000000" style="fill:#052032"/><path d="m62 6c-2.206 0-4-1.794-4-4 0-.552-.448-1-1-1s-1 .448-1 1c0 2.206-1.794 4-4 4-.552 0-1 .448-1 1s.448 1 1 1c2.206 0 4 1.794 4 4 0 .552.448 1 1 1s1-.448 1-1c0-2.206 1.794-4 4-4 .552 0 1-.448 1-1s-.448-1-1-1zm-5 2.687c-.444-.668-1.019-1.243-1.687-1.687.668-.444 1.243-1.019 1.687-1.687.444.668 1.019 1.243 1.687 1.687-.668.444-1.243 1.019-1.687 1.687z" data-original="#000000" class="active-path" data-old_color="#000000" style="fill:#052032"/><path d="m46 18c2.206 0 4 1.794 4 4 0 .552.448 1 1 1s1-.448 1-1c0-2.206 1.794-4 4-4 .552 0 1-.448 1-1s-.448-1-1-1c-2.206 0-4-1.794-4-4 0-.552-.448-1-1-1s-1 .448-1 1c0 2.206-1.794 4-4 4-.552 0-1 .448-1 1s.448 1 1 1zm5-2.687c.444.668 1.019 1.242 1.687 1.687-.668.444-1.242 1.019-1.687 1.687-.444-.668-1.019-1.242-1.687-1.687.668-.444 1.243-1.019 1.687-1.687z" data-original="#000000" class="active-path" data-old_color="#000000" style="fill:#052032"/></g></g> </svg>
