<?xml version="1.0"?>
<svg xmlns="http://www.w3.org/2000/svg" id="Layer_3" enable-background="new 0 0 64 64" height="512px" viewBox="0 0 64 64" width="512px" class=""><g><path d="m14 2v10h16v-10" fill="#f4b2b0" data-original="#F4B2B0" class="active-path" data-old_color="#f4b2b0" style="fill:#1A9FEA"/><g fill="#b3404a"><path d="m47 31c-1.383 0-2.719.195-4 .527v-29.527c0-.552-.447-1-1-1h-40c-.553 0-1 .448-1 1v52c0 .552.447 1 1 1h31.165c2.772 4.774 7.928 8 13.835 8 8.822 0 16-7.178 16-16s-7.178-16-16-16zm-6 1.178c-.693.282-1.359.615-2 .987v-25.165c0-.552-.447-1-1-1h-7v-4h10zm-9.861 12.822h-2.139v-4h3.178c-.513 1.262-.864 2.603-1.039 4zm-20.139-16h4v4h-4zm10-6v4h-4v-4zm12 10h-4v-4h4zm-6 0h-4v-4h4zm6-6h-4v-4h4zm-6 0h-4v-4h4zm-6 2v4h-4v-4zm-10 6h4v4h-4zm6 0h4v4h-4zm6 0h4v4h-4zm6 0h4v4h-4zm4-14h-22v-4h22zm-18 2v4h-4v-4zm-4 18h4v4h-4zm6 0h4v4h-4zm6 0h4v4h-4zm12-19v-6c0-.552-.447-1-1-1h-24c-.553 0-1 .448-1 1v6 24c0 .552.447 1 1 1h21c0 .679.056 1.343.139 2h-24.139v-40h6v3c0 .552.447 1 1 1h16c.553 0 1-.448 1-1v-3h6v25.53c-.723.581-1.388 1.227-2 1.923zm-20-19h14v8h-14zm-12 50v-50h10v4h-7c-.553 0-1 .448-1 1v42c0 .552.447 1 1 1h25.527c.177.684.389 1.354.651 2zm44 8c-7.72 0-14-6.28-14-14s6.28-14 14-14 14 6.28 14 14-6.28 14-14 14z" data-original="#000000" class="" data-old_color="#000000" style="fill:#052032"/><path d="m55.618 45-2.724-5.447c-.169-.339-.515-.553-.894-.553h-10c-.379 0-.725.214-.895.553l-2.723 5.447h-.382-3v2h2v3c0 1.302.839 2.402 2 2.816v2.184c0 .552.447 1 1 1h4c.553 0 1-.448 1-1v-2h4v2c0 .552.447 1 1 1h4c.553 0 1-.448 1-1v-2.184c1.161-.414 2-1.514 2-2.816v-3h2v-2h-3zm-13-4h8.764l2 4h-12.764zm.382 13h-2v-1h2zm8 0v-1h2v1zm4-4c0 .551-.448 1-1 1h-14c-.552 0-1-.449-1-1v-3h16z" data-original="#000000" class="" data-old_color="#000000" style="fill:#052032"/><path d="m41 48h2v2h-2z" data-original="#000000" class="" data-old_color="#000000" style="fill:#052032"/><path d="m51 48h2v2h-2z" data-original="#000000" class="" data-old_color="#000000" style="fill:#052032"/></g></g> </svg>
