<?xml version="1.0"?>
<svg xmlns="http://www.w3.org/2000/svg" id="Layer_3" enable-background="new 0 0 64 64" height="512px" viewBox="0 0 64 64" width="512px" class=""><g><circle cx="17" cy="53" fill="#f4b2b0" r="3" data-original="#F4B2B0" class="active-path" data-old_color="#f4b2b0" style="fill:#1A9FEA"/><circle cx="47" cy="53" fill="#f4b2b0" r="3" data-original="#F4B2B0" class="active-path" data-old_color="#f4b2b0" style="fill:#1A9FEA"/><g fill="#b3404a"><path d="m1 61v2h62v-2h-16-30z" data-original="#000000" class="" data-old_color="#000000" style="fill:#052032"/><path d="m17 49c-2.206 0-4 1.794-4 4s1.794 4 4 4 4-1.794 4-4-1.794-4-4-4zm0 6c-1.103 0-2-.897-2-2s.897-2 2-2 2 .897 2 2-.897 2-2 2z" data-original="#000000" class="" data-old_color="#000000" style="fill:#052032"/><path d="m47 49c-2.206 0-4 1.794-4 4s1.794 4 4 4 4-1.794 4-4-1.794-4-4-4zm0 6c-1.103 0-2-.897-2-2s.897-2 2-2 2 .897 2 2-.897 2-2 2z" data-original="#000000" class="" data-old_color="#000000" style="fill:#052032"/><path d="m62.447 40.105-7.794-3.897-8.059-10.477c-1.316-1.71-3.39-2.731-5.549-2.731h-11.782c1.137-2.146 1.737-4.528 1.737-7 0-8.271-6.729-15-15-15s-15 6.729-15 15 6.729 15 15 15c1.255 0 2.504-.158 3.712-.466l-4.281 5.565-9.688 2.076c-2.748.589-4.743 3.056-4.743 5.867v6.958c0 1.654 1.346 3 3 3h5.069c.495 3.94 3.859 7 7.931 7s7.436-3.06 7.931-7h14.139c.495 3.94 3.859 7 7.931 7s7.436-3.06 7.931-7h5.068c1.654 0 3-1.346 3-3v-10c0-.379-.214-.725-.553-.895zm-1.447 7.895h-2v-7.382l2 1zm-45-19c-7.168 0-13-5.832-13-13s5.832-13 13-13 13 5.832 13 13c0 2.665-.803 5.21-2.311 7.386-1.287.443-2.441 1.251-3.283 2.346l-1.36 1.768c-1.853.976-3.937 1.5-6.046 1.5zm-12.996 15h1.996v2h-2v-1.958c0-.014.004-.028.004-.042zm13.996 15c-3.309 0-6-2.691-6-6s2.691-6 6-6 6 2.691 6 6-2.691 6-6 6zm30 0c-3.309 0-6-2.691-6-6s2.691-6 6-6 6 2.691 6 6-2.691 6-6 6zm13-7h-5.069c-.495-3.94-3.859-7-7.931-7s-7.436 3.06-7.931 7h-14.138c-.495-3.94-3.859-7-7.931-7s-7.436 3.06-7.931 7h-5.069c-.551 0-1-.449-1-1v-3h3c.552 0 1-.448 1-1v-4c0-.552-.448-1-1-1h-2.425c.557-.93 1.477-1.631 2.587-1.869l10.048-2.153c.232-.05.438-.18.583-.368l8.199-10.658c.939-1.223 2.421-1.952 3.963-1.952h12.091c1.542 0 3.023.729 3.963 1.952l8.199 10.658c.092.12.21.217.345.285l3.447 1.723v9.382c0 .552.448 1 1 1h3v1c0 .551-.449 1-1 1z" data-original="#000000" class="" data-old_color="#000000" style="fill:#052032"/><path d="m49.887 38.462c.172-.331.146-.73-.068-1.035l-6.104-8.72c-.747-1.069-1.972-1.707-3.277-1.707h-10.876c-1.305 0-2.53.638-3.277 1.707l-6.104 8.72c-.214.305-.24.704-.068 1.035.172.33.514.538.887.538h28c.373 0 .715-.208.887-.538zm-21.963-8.609c.373-.534.986-.853 1.638-.853h4.438v8h-11.079zm8.076 7.147v-8h4.438c.652 0 1.265.319 1.638.853l5.003 7.147z" data-original="#000000" class="" data-old_color="#000000" style="fill:#052032"/><path d="m32 41h4v2h-4z" data-original="#000000" class="" data-old_color="#000000" style="fill:#052032"/><path d="m46 41h4v2h-4z" data-original="#000000" class="" data-old_color="#000000" style="fill:#052032"/><path d="m21 7h-10c-.552 0-1 .448-1 1v3c0 .06.005.12.016.179l1.984 10.911v3.91c0 .552.448 1 1 1h6c.552 0 1-.448 1-1v-3.91l1.984-10.911c.011-.059.016-.119.016-.179v-3c0-.552-.448-1-1-1zm-9 2h8v1.91l-.016.09h-7.967l-.017-.09zm6.165 12h-4.331l-1.455-8h7.24zm-.165 4h-4v-2h4z" data-original="#000000" class="" data-old_color="#000000" style="fill:#052032"/><path d="m38 17c2.757 0 5-2.243 5-5 0-1.557-.606-3.021-1.707-4.121-1.479-1.479-2.293-3.445-2.293-5.536v-.343c0-.552-.448-1-1-1s-1 .448-1 1v.343c0 2.091-.814 4.057-2.293 5.536-1.101 1.1-1.707 2.564-1.707 4.121 0 2.757 2.243 5 5 5zm-1.879-7.707c.777-.777 1.408-1.661 1.879-2.619.471.958 1.102 1.842 1.879 2.619.723.723 1.121 1.685 1.121 2.707 0 1.654-1.346 3-3 3s-3-1.346-3-3c0-1.022.398-1.984 1.121-2.707z" data-original="#000000" class="" data-old_color="#000000" style="fill:#052032"/><path d="m50 23c2.757 0 5-2.243 5-5 0-1.557-.606-3.021-1.707-4.121-1.479-1.479-2.293-3.445-2.293-5.536v-.343c0-.552-.448-1-1-1s-1 .448-1 1v.343c0 2.091-.814 4.057-2.293 5.536-1.101 1.1-1.707 2.564-1.707 4.121 0 2.757 2.243 5 5 5zm-1.879-7.707c.777-.777 1.408-1.661 1.879-2.619.471.958 1.102 1.842 1.879 2.619.723.723 1.121 1.685 1.121 2.707 0 1.654-1.346 3-3 3s-3-1.346-3-3c0-1.022.398-1.984 1.121-2.707z" data-original="#000000" class="" data-old_color="#000000" style="fill:#052032"/></g></g> </svg>
