<svg xmlns="http://www.w3.org/2000/svg" style="width:0; height:0; visibility:hidden;">
    <symbol id="icon_bus" viewBox="0 0 100 100">
       <path d="M94,24h-2V14c0-3.3-2.415-7.208-5.366-8.683C86.634,5.317,76,0,50,0S13.367,5.317,13.367,5.317  C10.415,6.792,8,10.7,8,14v10H6c-3.3,0-6,2.7-6,6v6c0,3.3,2.7,6,6,6h2v41c0,2.599,1.677,4.818,4,5.647V92c0,4.4,3.6,8,8,8s8-3.6,8-8  v-3h44v3c0,4.4,3.6,8,8,8s8-3.6,8-8v-3.353c2.323-0.829,4-3.049,4-5.647V42h2c3.3,0,6-2.7,6-6v-6C100,26.7,97.3,24,94,24z M30,10  c0-1.1,0.9-2,2-2h36c1.1,0,2,0.9,2,2v4c0,1.1-0.9,2-2,2H32c-1.1,0-2-0.9-2-2V10z M21,81c-2.762,0-5-2.24-5-5s2.238-5,5-5  c2.761,0,5,2.24,5,5S23.761,81,21,81z M79,81c-2.762,0-5-2.24-5-5s2.238-5,5-5s5,2.24,5,5S81.762,81,79,81z M84,58c0,1.1-0.9,2-2,2  H18c-1.1,0-2-0.9-2-2V26c0-1.1,0.9-2,2-2h64c1.1,0,2,0.9,2,2V58z"/> 
    </symbol>
    <symbol id="icon_calendar" viewBox="0 0 24 24">
      <rect clip-rule="evenodd" fill-rule="evenodd" height="4" width="2" x="6" y="2"/><rect clip-rule="evenodd" fill-rule="evenodd" height="4" width="2" x="16" y="2"/><path d="M19,4H5C3.9,4,3,4.9,3,6v14c0,1.1,0.9,2,2,2h14c1.1,0,2-0.9,2-2V6C21,4.9,20.1,4,19,4z M19,20H5V9h14V20z"/><rect clip-rule="evenodd" fill-rule="evenodd" height="5" width="5" x="12" y="13"/>
    </symbol>
    <symbol id="icon_car" viewBox="0 0 48 48">
      <path d="M37.84 12.02c-.41-1.18-1.53-2.02-2.84-2.02h-22c-1.31 0-2.43.84-2.84 2.02l-4.16 11.98v16c0 1.1.9 2 2 2h2c1.11 0 2-.9 2-2v-2h24v2c0 1.1.9 2 2 2h2c1.11 0 2-.9 2-2v-16l-4.16-11.98zm-24.84 19.98c-1.66 0-3-1.34-3-3s1.34-3 3-3 3 1.34 3 3-1.34 3-3 3zm22 0c-1.66 0-3-1.34-3-3s1.34-3 3-3 3 1.34 3 3-1.34 3-3 3zm-25-10l3-9h22l3 9h-28z"/><path d="M0 0h48v48h-48z" fill="none"/>
    </symbol>
    <symbol id="icon_car2" viewBox="0 0 100 100">
       <path d="M91.8,38.6l-4.5,0.6l2.5-1.5c0.6,0.2,1.3,0.3,2.1,0.3c2.3,0,4.2-1.1,4.2-2.5c0-1.4-1.9-2.5-4.2-2.5    c-2.3,0-4.2,1.1-4.2,2.5c0,0.4,0.2,0.8,0.5,1.2l-2.5,1.5L74.5,25c0,0-13.6-3.9-24.5-3.9C39.1,21,25.5,25,25.5,25L14.4,38.1    l-2.3-1.4c0.3-0.4,0.5-0.8,0.5-1.2c0-1.4-1.9-2.5-4.2-2.5c-2.3,0-4.2,1.1-4.2,2.5c0,1.4,1.9,2.5,4.2,2.5c0.7,0,1.4-0.1,2.1-0.3    l2.6,1.5l-4.8-0.7c-3.1,0-5.7,2.5-5.7,5.7v3.7v2.6v15.3c0,1.4,0.5,2.7,1.3,3.7h0V79h12.9v-7.3h66.5h0V79h12.9v-9.5    c0.8-1,1.3-2.3,1.3-3.7V50.5v-2.6v-3.7C97.5,41.1,95,38.6,91.8,38.6 M6.7,44.5c5.8-0.6,11.8,0.8,11.8,0.8s1.8,3.2,3.1,7.1    C11.4,52,8,46.1,6.7,44.5 M67.4,66H32.5l-3.3-9.5h41.5L67.4,66z M49.5,39.1c-15,0-24.8,2.1-26.2,2.4c-1-0.8-2.2-1.2-3.5-1.2    l-3.4-0.5L27,27.2c0,0,12.8-3.7,23-3.7c10.2,0,23,3.7,23,3.7l10.6,12.6l-3.4,0.5c-1.3,0-2.6,0.5-3.6,1.3    C76.6,41.5,65.8,39.1,49.5,39.1 M78.5,52.4c1.3-4,3.1-7.1,3.1-7.1s6-1.4,11.8-0.8C92.2,46.1,88.8,52,78.5,52.4"/> 
    </symbol>
    <symbol id="icon_chair" viewBox="0 0 32 32">
       <path d="m28 13c-0.553 0-1-0.448-1-1v-6.002c0-2.205-1.794-3.998-3.998-3.998h-14.004c-2.205 0-3.998 1.793-3.998 3.998v6.002c0 0.552-0.448 1-1 1s-1-0.448-1-1v-6.002c0-3.307 2.691-5.998 5.998-5.998h14.004c3.308 0 5.998 2.691 5.998 5.998v6.002c0 0.552-0.447 1-1 1z"/> <path d="m5.091 32c-0.552 0-1-0.447-1-1v-2.728c0-0.553 0.448-1 1-1s1 0.447 1 1v2.728c0 0.553-0.448 1-1 1z"/> <path d="m26.909 32c-0.553 0-1-0.447-1-1v-2.728c0-0.553 0.447-1 1-1s1 0.447 1 1v2.728c0 0.553-0.447 1-1 1z"/> <path d="m26.999 28h-21.998c-2.757 0-5.001-2.243-5.001-5.001v-6.999c0-2.757 2.243-5 5-5s5 2.243 5 5v2.496c0 0.278 0.226 0.504 0.504 0.504h10.992c0.278 0 0.504-0.226 0.504-0.504v-2.496c0-2.757 2.243-5 5-5s5 2.243 5 5v6.999c0 2.758-2.243 5.001-5.001 5.001zm-21.999-15c-1.654 0-3 1.346-3 3v6.999c0 1.654 1.346 3.001 3.001 3.001h21.998c1.654 0 3.001-1.347 3.001-3.001v-6.999c0-1.654-1.346-3-3-3s-3 1.346-3 3v2.496c0 1.381-1.123 2.504-2.504 2.504h-10.992c-1.381 0-2.504-1.123-2.504-2.504v-2.496c0-1.654-1.346-3-3-3z"/> <circle cy="8" cx="11" r="1"/> <circle cy="8" cx="21" r="1"/> 
    </symbol>
    <symbol id="icon_child" viewBox="0 0 89.221382 88.888283">
       <g fill-rule="evenodd" clip-rule="evenodd" transform="translate(-5.3795 -5.0126)"> <path d="m62.7 71.4c-5.3 11.1-21.6 37-46.7 11.9s0.7-41.4 11.9-46.7c-9.8-25 2.3-29.3 9.8-29.4s15.6 13.9 17.1 16.6-1.6 5.4-5.6 7.6c-2.8 1.6-7 1.4-8.6 2.7-3.7 3 9.4 15 9.4 15s12 13.1 15 9.4c1.3-1.5 1.1-5.7 2.7-8.6 2.2-3.9 5-7.1 7.6-5.6 2.7 1.5 16.7 9.6 16.6 17.2 0.1 7.6-4.2 19.7-29.2 9.9zm-7.7-3.5c-8.8-6.5-10.8-8-13.3-10.5s0 0 0 0c-1.3-1.1-4-4.4-10.5-13.3-29.2 11.8-8.3 32.3-8.3 32.3s20.5 20.9 32.1-8.5z"/> <path d="m73.2 41.2c-8.1 3.5-8.9 11.2-9.9 13.9-0.6 3.2-6.8-3.1-11.2-7.5s-9.9-10.6-8-11.1c2.8-0.9 10.7-2.1 14.2-10.2 5.4-13.3 17.9-29.7 31.3-16.3s-2.9 25.6-16.4 31.2z"/> </g> 
    </symbol>
    <symbol id="icon_clock" viewBox="0 0 24 24">
       <g> <path d="M12,21c-5,0-9-4-9-9s4-9,9-9s9,4,9,9S17,21,12,21z" fill="none" stroke="#84a7c9" stroke-miterlimit="10" stroke-width="2"/> <polyline fill="none" points="12,7 12,12 15,15 " stroke="#84a7c9" stroke-miterlimit="10" stroke-width="2"/> </g> 
    </symbol>
    <symbol id="icon_comment" viewBox="0 0 86.000153 67.99662">
       <g transform="translate(-6.9998 -968.36)"> <path style="color:#000000;text-indent:0;block-progression:tb;text-decoration-line:none;text-transform:none" d="m27.812 16c-0.458 0.088-0.82 0.533-0.812 1v7h-19a1.0001 1.0001 0 0 0 -0.1875 0 1.0001 1.0001 0 0 0 -0.8125 1v58a1.0001 1.0001 0 0 0 1.7188 0.6875l13.687-13.688h49.594a1.0001 1.0001 0 0 0 1 -1v-7h4.5938l13.688 13.688c0.547 0.566 1.712 0.1 1.718-0.688v-58c-0.000052-0.52358-0.47642-0.99995-1-1h-64c-0.06232-0.006-0.12518-0.006-0.1875 0zm1.188 2h62v54.562l-12.281-12.281c-0.19-0.183-0.455-0.287-0.719-0.281h-5v-35a1.0001 1.0001 0 0 0 -1 -1h-43v-6zm-20 8h62v42h-49a1.0001 1.0001 0 0 0 -0.71875 0.28125l-12.281 12.281v-54.562zm15 16c-2.7496 0-5 2.2504-5 5 0 2.7495 2.2504 5 5 5s5-2.2505 5-5c0-2.7496-2.2504-5-5-5zm16 0c-2.7496 0-5 2.2504-5 5 0 2.7495 2.2504 5 5 5s5-2.2505 5-5c0-2.7496-2.2504-5-5-5zm16 0c-2.7496 0-5 2.2504-5 5 0 2.7495 2.2504 5 5 5s5-2.2505 5-5c0-2.7496-2.2504-5-5-5zm-32 2c1.6687 0 3 1.3313 3 3s-1.3313 3-3 3-3-1.3313-3-3 1.3313-3 3-3zm16 0c1.6687 0 3 1.3313 3 3s-1.3313 3-3 3-3-1.3313-3-3 1.3313-3 3-3zm16 0c1.6687 0 3 1.3313 3 3s-1.3313 3-3 3-3-1.3313-3-3 1.3313-3 3-3z" transform="translate(0 952.36)"/> </g> 
    </symbol>
    <symbol id="icon_docs" viewBox="0 0 38.670101 48.001099">
       <g stroke-linejoin="round" transform="translate(-4.6649,1e-4)" stroke="#00386e" stroke-linecap="round" stroke-miterlimit="10" stroke-width="2" fill="none"> <rect height="35.938" width="27.371" y="11.063" x="14.964"/> <polyline points="10.575 42.176 10.575 6.238 37.947 6.238"/> <polyline points="5.665 36.939 5.665 1 33.035 1"/> <line y2="35.159" x2="37.947" y1="35.159" x1="19.351"/> <line y2="41.096" x2="37.947" y1="41.096" x1="19.351"/> <line y2="17.35" x2="37.947" y1="17.35" x1="19.351"/> <line y2="23.286" x2="37.947" y1="23.286" x1="19.351"/> <line y2="29.223" x2="37.947" y1="29.223" x1="19.351"/> </g> 
    </symbol>
    <symbol id="icon_facebook" viewBox="0 0 470.513 470.513">
       <g> <path d="M271.521,154.17v-40.541c0-6.086,0.28-10.8,0.849-14.13c0.567-3.335,1.857-6.615,3.859-9.853
		c1.999-3.236,5.236-5.47,9.706-6.708c4.476-1.24,10.424-1.858,17.85-1.858h40.539V0h-64.809c-37.5,0-64.433,8.897-80.803,26.691
		c-16.368,17.798-24.551,44.014-24.551,78.658v48.82h-48.542v81.086h48.539v235.256h97.362V235.256h64.805l8.566-81.086H271.521z"/> </g>                
    </symbol>
    <symbol id="icon_family" viewBox="0 0 100 125">
      <path class="st0" d="M73,104.4"/><g><circle cx="39.4" cy="29.9" r="5.4"/><path d="M43.3,36.9h-7.9c-1.3,0-2.4,0.9-2.8,2.1l-3.2,11.7l4,3.4l2.1,25.2h7.7l2.1-25.2l4-3.4L46.1,39   C45.8,37.7,44.6,36.9,43.3,36.9z"/><circle cx="82.8" cy="48.6" r="3.3"/><path d="M86.9,54.2c-0.2-0.8-0.9-1.3-1.7-1.3h-4.8c-0.8,0-1.5,0.5-1.7,1.3l-2,7.1l2.4,2.1l1.3,15.4h4.7l1.3-15.4l2.4-2.1L86.9,54.2   z"/><circle cx="63" cy="29.9" r="5.4"/><path d="M73,50.7l-2.9-10.5c-0.5-1.9-2.3-3.2-4.3-3.2h-5.5c-2,0-3.7,1.3-4.3,3.2l-2.9,10.5L57,54l-5.2,9h6l1.3,16.3h7.7L68.3,63h6   L69,54L73,50.7z"/><circle cx="20" cy="44.2" r="3.8"/><path d="M26.9,58.7l-2-7.4c-0.4-1.3-1.6-2.3-3-2.3H18c-1.4,0-2.6,0.9-3,2.3l-2,7.4l2.7,2.4l-3.6,6.3h4.2l0.9,11.4h5.4l0.9-11.4h4.2   l-3.6-6.3L26.9,58.7z"/></g>
    </symbol>
    <symbol id="icon_guard" viewBox="0 0 17.980444 22">
       <path d="m8.9902 2.053 6.607 1.525c0.392 3.359 0.646 8.134-0.057 9.926-0.493 1.256-3.586 3.945-6.55 6.063v-17.514m0-2.053-8.412 1.942s-1.301 8.981 0 12.293c1.1302 2.877 8.4122 7.765 8.4122 7.765s7.282-4.888 8.412-7.765c1.301-3.312 0-12.293 0-12.293l-8.4118-1.942z"/> 
    </symbol>
    <symbol id="icon_instagram" viewBox="0 0 438.536 438.536">
       <g> <path d="M421.981,16.562C410.941,5.519,397.711,0,382.298,0H56.248C40.83,0,27.604,5.521,16.561,16.562
		C5.52,27.6,0.001,40.828,0.001,56.243V382.29c0,15.413,5.518,28.644,16.56,39.683c11.043,11.04,24.272,16.563,39.687,16.563
		h326.046c15.41,0,28.644-5.523,39.684-16.563c11.043-11.039,16.557-24.27,16.557-39.683V56.243
		C438.534,40.825,433.021,27.604,421.981,16.562z M157.462,158.025c17.224-16.652,37.924-24.982,62.097-24.982
		c24.36,0,45.153,8.33,62.381,24.982c17.228,16.655,25.837,36.785,25.837,60.386c0,23.598-8.609,43.729-25.837,60.379
		c-17.228,16.659-38.014,24.988-62.381,24.988c-24.172,0-44.87-8.336-62.097-24.988c-17.228-16.652-25.841-36.781-25.841-60.379
		C131.621,194.81,140.234,174.681,157.462,158.025z M388.865,370.589c0,4.945-1.718,9.083-5.141,12.416
		c-3.433,3.33-7.519,4.996-12.282,4.996h-305.2c-4.948,0-9.091-1.666-12.419-4.996c-3.333-3.326-4.998-7.471-4.998-12.416V185.575
		H89.08c-3.805,11.993-5.708,24.462-5.708,37.402c0,36.553,13.322,67.715,39.969,93.511c26.65,25.786,58.721,38.685,96.217,38.685
		c24.744,0,47.583-5.903,68.527-17.703c20.937-11.807,37.486-27.839,49.676-48.112c12.183-20.272,18.274-42.4,18.274-66.38
		c0-12.94-1.91-25.406-5.715-37.402h38.547v185.014H388.865z M388.865,115.626c0,5.52-1.903,10.184-5.716,13.99
		c-3.805,3.809-8.466,5.711-13.989,5.711h-49.676c-5.517,0-10.185-1.903-13.99-5.711c-3.806-3.806-5.708-8.47-5.708-13.99V68.522
		c0-5.33,1.902-9.945,5.708-13.848c3.806-3.901,8.474-5.854,13.99-5.854h49.676c5.523,0,10.185,1.952,13.989,5.854
		c3.812,3.903,5.716,8.518,5.716,13.848V115.626z"/> </g>                
    </symbol>
    <symbol id="icon_logo" viewBox="0 0 82 82">
       <g transform="translate(-3.7,-3.6)"> <path d="m44.7 85.6c-22.6 0-41-18.4-41-41s18.4-41 41-41 41 18.4 41 41-18.4 41-41 41zm0-77c-19.8 0-36 16.1-36 36s16.1 36 36 36c19.8 0 36-16.1 36-36s-16.2-36-36-36z"/> <path d="m44.7 75.9c-17.3 0-31.3-14-31.3-31.3s14-31.3 31.3-31.3 31.3 14 31.3 31.3-14 31.3-31.3 31.3zm0-60.6c-16.2 0-29.3 13.2-29.3 29.3 0 16.2 13.2 29.3 29.3 29.3s29.3-13.1 29.3-29.3-13.1-29.3-29.3-29.3z"/> <path d="m73.7 38.4c-16.8-9-31.6-8.6-41.1-6.6-10.3 2.1-16.7 6.5-16.8 6.5l-1.1-1.6c0.3-0.2 26.8-17.9 60-0.1l-1 1.8z"/> <path d="m38.3 75.1-2-0.4c0-0.1 1.8-8.8-3.5-16.4-5.3-7.5-17.3-5.7-17.4-5.7l-0.3-2c0.5-0.1 13.3-2 19.4 6.5 5.8 8.4 3.9 17.6 3.8 18z"/> <path d="m50.9 75.1c-0.1-0.4-2-9.6 3.9-18 6-8.5 18.8-6.6 19.4-6.5l-0.3 2c-0.1 0-12.1-1.8-17.4 5.7-5.4 7.6-3.6 16.3-3.5 16.4l-2.1 0.4z"/> <path d="m44.7 50.3c-3.1 0-5.7-2.6-5.7-5.7s2.6-5.7 5.7-5.7c3.2 0 5.7 2.6 5.7 5.7 0 3.2-2.5 5.7-5.7 5.7zm0-9.4c-2 0-3.7 1.7-3.7 3.7s1.7 3.7 3.7 3.7 3.7-1.7 3.7-3.7-1.7-3.7-3.7-3.7z"/> </g> 
    </symbol>
    <symbol id="icon_mail" viewBox="0 0 139 139">
      <path d="M69.5,64.534l46.415-28.941c-0.505-0.08-1.017-0.132-1.542-0.132H24.627c-0.525,0-1.038,0.054-1.541,0.132L69.5,64.534z"/><path d="M72.421,75.723c-0.062,0.04-0.13,0.066-0.194,0.104c-0.067,0.037-0.139,0.073-0.206,0.107  c-0.365,0.188-0.741,0.339-1.125,0.439c-0.04,0.011-0.078,0.017-0.116,0.025c-0.423,0.099-0.848,0.16-1.274,0.16  c-0.001,0-0.003,0-0.004,0s-0.003,0-0.005,0c-0.426,0-0.852-0.06-1.273-0.16c-0.039-0.009-0.079-0.015-0.118-0.025  c-0.384-0.101-0.757-0.252-1.124-0.439c-0.069-0.034-0.139-0.07-0.207-0.107c-0.065-0.037-0.132-0.063-0.196-0.104L15.005,43.564  c-0.093,0.544-0.153,1.099-0.153,1.671v51.609c0,5.398,4.375,9.774,9.774,9.774h89.746c5.398,0,9.774-4.376,9.774-9.774V45.235  c0-0.572-0.059-1.127-0.154-1.671L72.421,75.723z"/>
    </symbol>
    <symbol id="icon_male" viewBox="0 0 50 50">
       <path d="M30.933,32.528  c-0.146-1.612-0.09-2.737-0.09-4.21c0.73-0.383,2.038-2.825,2.259-4.888c0.574-0.047,1.479-0.607,1.744-2.818  c0.143-1.187-0.425-1.855-0.771-2.065c0.934-2.809,2.874-11.499-3.588-12.397c-0.665-1.168-2.368-1.759-4.581-1.759  c-8.854,0.163-9.922,6.686-7.981,14.156c-0.345,0.21-0.913,0.878-0.771,2.065c0.266,2.211,1.17,2.771,1.744,2.818  c0.22,2.062,1.58,4.505,2.312,4.888c0,1.473,0.055,2.598-0.091,4.21C19.367,37.238,7.546,35.916,7,45h38  C44.455,35.916,32.685,37.238,30.933,32.528z" fill="none" stroke="#ffea00" stroke-linecap="round" stroke-miterlimit="10" stroke-width="2"/> 
    </symbol>
    <symbol id="icon_news" viewBox="0 0 32 32">
      <g fill-rule="evenodd" clip-rule="evenodd"><path d="m29 0h-22c-1.657 0-3 1.342-3 3v2h-1c-1.657 0-3 1.342-3 3v20c0 2.209 1.791 4 4 4h24c2.209 0 4-1.791 4-4v-25c0-1.658-1.344-3-3-3zm1 28c0 1.102-0.898 2-2 2h-24c-1.103 0-2-0.898-2-2v-20c0-0.552 0.448-1 1-1h1v20c0 0.553 0.447 1 1 1s1-0.447 1-1v-24c0-0.552 0.448-1 1-1h22c0.551 0 1 0.448 1 1v25z"/><path d="m19.498 13.005h8c0.277 0 0.5-0.224 0.5-0.5s-0.223-0.5-0.5-0.5h-8c-0.275 0-0.5 0.224-0.5 0.5s0.225 0.5 0.5 0.5z"/><path d="m19.498 10.005h8c0.277 0 0.5-0.224 0.5-0.5s-0.223-0.5-0.5-0.5h-8c-0.275 0-0.5 0.224-0.5 0.5s0.225 0.5 0.5 0.5z"/><path d="m19.498 7.005h8c0.277 0 0.5-0.224 0.5-0.5s-0.223-0.5-0.5-0.5h-8c-0.275 0-0.5 0.224-0.5 0.5s0.225 0.5 0.5 0.5z"/><path d="m16.5 27.004h-8c-0.276 0-0.5 0.225-0.5 0.5 0 0.277 0.224 0.5 0.5 0.5h8c0.275 0 0.5-0.223 0.5-0.5 0-0.275-0.224-0.5-0.5-0.5z"/><path d="m16.5 24.004h-8c-0.276 0-0.5 0.225-0.5 0.5 0 0.277 0.224 0.5 0.5 0.5h8c0.275 0 0.5-0.223 0.5-0.5 0-0.275-0.224-0.5-0.5-0.5z"/><path d="m16.5 21.004h-8c-0.276 0-0.5 0.225-0.5 0.5 0 0.277 0.224 0.5 0.5 0.5h8c0.275 0 0.5-0.223 0.5-0.5 0-0.275-0.224-0.5-0.5-0.5z"/><path d="m27.5 27.004h-8c-0.277 0-0.5 0.225-0.5 0.5 0 0.277 0.223 0.5 0.5 0.5h8c0.275 0 0.5-0.223 0.5-0.5 0-0.275-0.225-0.5-0.5-0.5z"/><path d="m27.5 24.004h-8c-0.277 0-0.5 0.225-0.5 0.5 0 0.277 0.223 0.5 0.5 0.5h8c0.275 0 0.5-0.223 0.5-0.5 0-0.275-0.225-0.5-0.5-0.5z"/><path d="m27.5 21.004h-8c-0.277 0-0.5 0.225-0.5 0.5 0 0.277 0.223 0.5 0.5 0.5h8c0.275 0 0.5-0.223 0.5-0.5 0-0.275-0.225-0.5-0.5-0.5z"/><path d="m27.5 15.004h-19c-0.276 0-0.5 0.224-0.5 0.5s0.224 0.5 0.5 0.5h19c0.275 0 0.5-0.224 0.5-0.5s-0.225-0.5-0.5-0.5z"/><path d="m27.5 18.004h-19c-0.276 0-0.5 0.225-0.5 0.5 0 0.277 0.224 0.5 0.5 0.5h19c0.275 0 0.5-0.223 0.5-0.5 0-0.275-0.225-0.5-0.5-0.5z"/><path d="m9 13h7c0.553 0 1-0.447 1-1v-6.996c0-0.553-0.447-1-1-1h-7c-0.553 0-1 0.447-1 1v6.996c0 0.552 0.447 1 1 1zm1-7h5v5h-5v-5z"/></g>
    </symbol>
    <symbol id="icon_people" viewBox="0 0 94.836281 75.621002">
       <g transform="translate(-3.2684 -11.152)"> <path fill="none" d="m79.391 21.922c0.029 0.142 0.06 0.344 0.159 0.399 0.158 0.089 0.361 0.081 0.503-0.121 0.084-0.12 0.208-0.218 0.331-0.306 0.066 0.019 0.138 0.029 0.22 0.018 0.462-0.061 0.772-0.34 1.016-0.705 0.094-0.141 0.165-0.297 0.24-0.45 0.075 0.153 0.146 0.31 0.24 0.45 0.244 0.365 0.555 0.644 1.016 0.705 0.082 0.011 0.154 0.001 0.22-0.018 0.122 0.088 0.246 0.185 0.331 0.306 0.142 0.202 0.344 0.21 0.503 0.121 0.098-0.055 0.129-0.257 0.159-0.399 0.023-0.111-0.004-0.231-0.008-0.347h0.005c-0.015-0.371 0.012-0.749-0.052-1.111-0.146-0.826-0.991-1.45-1.741-1.34-0.12 0.018-0.494 0.162-0.672 0.239-0.178-0.077-0.551-0.221-0.671-0.239-0.75-0.11-1.595 0.514-1.741 1.34-0.064 0.362-0.038 0.74-0.052 1.111h0.005c-0.007 0.116-0.034 0.237-0.011 0.347z"/> <path fill="none" d="m51.018 31.206 1.856 8.16c0.11 0.36 0.189 0.732 0.252 1.11l0.032 0.14-0.01 0.001c0.063 0.422 0.106 0.85 0.106 1.29 0 0.018-0.003 0.036-0.003 0.055 1.098-2.957 3.09-6.713 3.697-7.836-0.703-0.243-1.35-0.512-1.796-0.73-0.971-0.473-2.821-1.457-4.134-2.19z"/> <path fill="none" d="m83.263 25.15-0.749 0.259c-0.071 0.024-0.121 0.13-0.121 0.24v0.149c0 0.11 0.05 0.216 0.121 0.24l0.749 0.259c0.301 0.104 0.64-0.038 0.64-0.356v-0.433c0-0.321-0.339-0.462-0.64-0.358z"/> <path fill="none" d="m88.171 31.182 1.822 8.013c0.056 0.184 0.087 0.378 0.129 0.568 0.029 0.121 0.059 0.242 0.083 0.365 0.01 0.053 0.027 0.104 0.036 0.157l0.031 0.137-0.01 0.001c0.018 0.12 0.03 0.243 0.044 0.365 0.005 0.04 0.01 0.079 0.014 0.119 0.027 0.258 0.046 0.518 0.046 0.783 0 0.02-0.002 0.039-0.003 0.058 1.077-2.903 3.034-6.596 3.631-7.699-0.69-0.238-1.325-0.503-1.764-0.716-0.953-0.464-2.769-1.43-4.059-2.151z"/> <circle cy="25.723" cx="81.855" r="0.464" fill="none"/> <path fill="none" d="m45.61 25.634c0-0.563-0.457-1.02-1.02-1.02s-1.02 0.457-1.02 1.02c0 0.169 0.051 0.321 0.124 0.461l-0.233 12.956 1.129 1.21 1.129-1.21-0.233-12.956c0.073-0.14 0.124-0.292 0.124-0.461z"/> <path fill="none" d="m80.455 25.15c-0.301-0.104-0.64 0.038-0.64 0.357v0.433c0 0.319 0.339 0.461 0.64 0.356l0.749-0.259c0.071-0.024 0.121-0.13 0.121-0.24v-0.149c0-0.109-0.05-0.216-0.121-0.24l-0.749-0.258z"/> <polygon points="41.101 25.172 41.101 25.172 41.101 25.171" fill="none"/> <path fill="none" d="m32.232 34.126c0.607 1.122 2.599 4.878 3.697 7.836 0-0.018-0.003-0.036-0.003-0.055 0-0.465 0.047-0.918 0.117-1.362l-0.01-0.001 0.031-0.138c0.052-0.297 0.118-0.589 0.199-0.874l1.897-8.324c-1.313 0.733-3.162 1.717-4.133 2.19-0.446 0.216-1.093 0.485-1.795 0.728z"/> <path d="m81.859 23.303c3.262 0 5.906-2.644 5.906-5.906s-2.644-5.906-5.906-5.906-5.906 2.644-5.906 5.906 2.644 5.906 5.906 5.906zm-2.465-1.729c0.015-0.371-0.012-0.749 0.052-1.111 0.146-0.826 0.991-1.45 1.741-1.34 0.12 0.018 0.494 0.162 0.671 0.239 0.178-0.077 0.552-0.221 0.672-0.239 0.75-0.11 1.595 0.514 1.741 1.34 0.064 0.362 0.038 0.74 0.052 1.111h-0.005c0.005 0.116 0.031 0.237 0.008 0.347-0.029 0.142-0.06 0.344-0.159 0.399-0.158 0.089-0.361 0.081-0.503-0.121-0.084-0.12-0.208-0.218-0.331-0.306-0.066 0.019-0.138 0.029-0.22 0.018-0.462-0.061-0.772-0.34-1.016-0.705-0.094-0.141-0.165-0.297-0.24-0.45-0.075 0.153-0.146 0.31-0.24 0.45-0.244 0.365-0.555 0.644-1.016 0.705-0.082 0.011-0.154 0.001-0.22-0.018-0.122 0.088-0.246 0.185-0.331 0.306-0.142 0.202-0.344 0.21-0.503 0.121-0.098-0.055-0.129-0.257-0.159-0.399-0.023-0.111 0.004-0.231 0.008-0.347 0.003 0.001 0 0.001-0.002 0z"/> <path d="m70.982 54.2c0.313 0.384 0.508 0.867 0.508 1.401h1.085c0-1.034-0.484-1.946-1.226-2.554-0.11 0.425-0.23 0.82-0.367 1.153z"/> <path d="m65.96 55.477h-0.013v0.123 0.001 30.196h1.079v-30.196h0.006c0-0.81 0.436-1.512 1.083-1.902-0.108-0.325-0.208-0.679-0.298-1.065-1.062 0.521-1.809 1.588-1.857 2.843z"/> <path d="m97.922 33.484c-1.306-3.6-5.772-6.038-9.03-7.281-2.034-1.293-4.444-2.047-7.033-2.047-4.223 0-7.974 1.997-10.379 5.092-0.203 0.205-0.562 0.722-0.988 1.465-0.055 0.095-0.115 0.187-0.168 0.284h0.008c-1.4 2.535-3.323 7.205-2.702 11.037-0.074 0.215-0.122 0.443-0.121 0.683 0 0 0.15 12.294 2.134 12.289s2.072-12.3 2.072-12.3c-0.001-0.428-0.132-0.825-0.353-1.157 0.342-0.659 0.625-1.301 0.798-1.765 0.552-1.485 3.029-8.028 3.188-8.787h0.24l-1.905 8.36c-0.027 0.095-0.042 0.194-0.066 0.29-0.044 0.174-0.086 0.347-0.12 0.525-0.003 0.015-0.008 0.029-0.01 0.044l-0.031 0.135 0.01 0.001c-0.007 0.042-0.01 0.084-0.016 0.126-0.026 0.175-0.051 0.349-0.067 0.527-0.006 0.065-0.006 0.131-0.01 0.196-0.011 0.179-0.027 0.357-0.027 0.538 0 1.805 0.566 3.476 1.525 4.853-0.042 0.188-0.083 0.385-0.125 0.591-0.625 1.984-1.76 9.254 0.094 35.102 0 0 0.098 0.061 0.273 0.149v0.604c0 1.523 1.047 2.758 2.338 2.758h0.013c1.291 0 2.338-1.235 2.338-2.758v-0.453c0.174-0.086 0.348-0.185 0.521-0.299 0.451-11.772-0.413-25.312 1.536-30.17 0.405 1.01 0.69 2.391 0.888 4.058 0.06 1.106 0.126 2.127 0.188 2.839 0.033 0.379 0.079 0.848 0.139 1.366 0.281 6.233 0.035 14.43 0.321 21.907 0.111 0.073 0.222 0.132 0.333 0.193v0.503c0 1.523 1.047 2.758 2.338 2.758h0.013c1.291 0 2.338-1.235 2.338-2.758v-0.458c0.292-0.133 0.461-0.238 0.461-0.238 2.075-28.928 0.407-34.591-0.101-35.61 0.363-0.508 0.677-1.053 0.923-1.636 0.046 0.185 0.118 0.34 0.251 0.416 1.727 0.977 7.885-9.664 7.885-9.664 0.302-0.535 0.339-1.143 0.163-1.685 0.03-0.167 0.016-0.367-0.077-0.623zm-16.597-7.687c0 0.11-0.05 0.216-0.121 0.24l-0.749 0.259c-0.301 0.104-0.64-0.038-0.64-0.356v-0.433c0-0.319 0.339-0.461 0.64-0.357l0.749 0.259c0.071 0.024 0.121 0.13 0.121 0.24v0.148zm0.53 0.39c-0.256 0-0.464-0.208-0.464-0.464s0.208-0.464 0.464-0.464 0.464 0.208 0.464 0.464-0.207 0.464-0.464 0.464zm2.048-0.248c0 0.319-0.339 0.461-0.64 0.356l-0.749-0.259c-0.071-0.024-0.121-0.13-0.121-0.24v-0.149c0-0.109 0.05-0.216 0.121-0.24l0.749-0.259c0.301-0.104 0.64 0.038 0.64 0.357v0.434zm6.461 15.81c0-0.02 0.003-0.039 0.003-0.058 0-0.265-0.02-0.525-0.046-0.783-0.004-0.04-0.01-0.079-0.014-0.119-0.014-0.122-0.026-0.244-0.044-0.365l0.01-0.001-0.031-0.137c-0.009-0.054-0.026-0.104-0.036-0.157-0.024-0.123-0.054-0.244-0.083-0.365-0.042-0.19-0.073-0.384-0.129-0.568l-1.822-8.013c1.29 0.72 3.106 1.686 4.06 2.151 0.439 0.214 1.074 0.478 1.764 0.716-0.598 1.103-2.554 4.795-3.632 7.699z"/> <circle cx="44.59" cy="17.167" r="6.015"/> <path d="m60.948 33.549c-2.115-5.832-12.38-8.674-12.869-8.378-0.01-0.007-0.019-0.014-0.029-0.021l-0.639-1.332-2.6 0.232v0.011c-0.074-0.003-0.147-0.011-0.222-0.011-0.082 0-0.162 0.009-0.244 0.012v-0.012l-2.6-0.232-0.648 1.351c-0.527-0.284-10.755 2.559-12.866 8.379-0.094 0.261-0.109 0.465-0.078 0.635-0.179 0.551-0.142 1.171 0.166 1.715 0 0 6.272 10.837 8.03 9.841 0.141-0.08 0.226-0.229 0.274-0.425 0.074 0.172 0.159 0.339 0.243 0.505 0.043 2.154-0.014 3.074-0.014 3.074h0.001c-0.582 3.599-1.084 12.456 0.467 34.067 0 0 0.15 0.092 0.404 0.212v0.79c0 1.551 1.066 2.809 2.381 2.809h0.013c1.315 0 2.381-1.258 2.381-2.809v-0.767c0.135-0.072 0.27-0.146 0.404-0.235 0.301-7.855 0.025-16.489 0.356-22.903 0.018-0.18 0.033-0.351 0.047-0.505 0.054-0.616 0.11-1.459 0.163-2.388 0.205-2.07 0.518-3.771 0.998-4.96 1.992 4.935 1.104 18.756 1.564 30.755 0.155 0.102 0.31 0.19 0.465 0.27v0.674c0 1.551 1.066 2.809 2.381 2.809h0.013c1.315 0 2.381-1.258 2.381-2.809v-0.761c0.216-0.105 0.343-0.183 0.343-0.183 1.564-21.803 1.039-30.622 0.451-34.159l0.007-0.001s-0.047-0.76-0.024-2.504c0.187-0.317 0.36-0.642 0.506-0.982 0.048 0.196 0.133 0.345 0.274 0.425 1.759 0.995 8.03-9.841 8.03-9.841 0.308-0.544 0.345-1.164 0.166-1.715 0.033-0.168 0.018-0.372-0.076-0.633zm-24.684 5.982c-0.081 0.286-0.147 0.577-0.199 0.874l-0.031 0.138 0.01 0.001c-0.07 0.445-0.117 0.898-0.117 1.362 0 0.018 0.003 0.036 0.003 0.055-1.098-2.957-3.09-6.713-3.697-7.836 0.703-0.243 1.35-0.512 1.797-0.73 0.971-0.473 2.82-1.456 4.133-2.19l-1.899 8.326zm4.837-14.359zm3.489 15.09-1.129-1.21 0.233-12.956c-0.073-0.14-0.124-0.292-0.124-0.461 0-0.563 0.457-1.02 1.02-1.02s1.02 0.457 1.02 1.02c0 0.169-0.051 0.321-0.124 0.461l0.233 12.956-1.129 1.21zm8.661 1.699c0-0.018 0.003-0.036 0.003-0.055 0-0.44-0.043-0.868-0.106-1.29l0.01-0.001-0.032-0.14c-0.063-0.378-0.142-0.75-0.252-1.11l-1.856-8.16c1.313 0.733 3.163 1.717 4.134 2.19 0.447 0.218 1.094 0.487 1.796 0.73-0.607 1.123-2.599 4.879-3.697 7.836z"/> <path d="m20.674 51.692c-0.195-0.509-0.661-0.83-1.17-0.873v-0.02-0.001-0.008h-2.829c0-0.011 0.003-0.022 0.003-0.033v-1.392c1.436-0.571 2.551-1.775 2.996-3.27v0.008c0.576-0.889 0.812-1.949 0.812-3.087 0-1.931-0.965-3.634-2.437-4.661 0.948-0.209 0.594-1.285 0.019-1.476 0.032 0.891-2.479 0.509-2.479 0.509l0.021 0.01c-0.264-0.038-0.532-0.064-0.807-0.064-3.138 0-5.682 2.544-5.682 5.682 0 1.138 0.236 2.198 0.812 3.087v-0.008c0.445 1.495 1.56 2.698 2.996 3.269v1.392c0 0.011 0.003 0.022 0.003 0.033h-2.851v0.008 0.001 0.02c-0.51 0.043-0.975 0.364-1.17 0.873l-5.551 14.457c-0.272 0.71 0.082 1.506 0.792 1.779 0.162 0.062 0.329 0.092 0.493 0.092 0.553 0 1.075-0.336 1.286-0.884l4.152-10.81v8.536 0.27 0.632c0 0.081 0.016 0.158 0.023 0.238v17.33h0.056v1.789c0 0.909 0.744 1.653 1.653 1.653h0.302c0.909 0 1.653-0.744 1.653-1.653v-1.789h0.018v-14.976h2.016v3.65c0 0.011-0.003 0.021-0.003 0.032v13.065c0 0.918 0.751 1.67 1.67 1.67h0.343c0.918 0 1.67-0.751 1.67-1.67v-1.772h0.003v-17.394c0.004-0.058 0.017-0.114 0.017-0.173v-0.632-0.27-8.536l4.152 10.81c0.21 0.547 0.732 0.884 1.286 0.884 0.164 0 0.331-0.03 0.493-0.092 0.71-0.273 1.064-1.069 0.792-1.779l-5.553-14.456z"/> </g> 
    </symbol>
    <symbol id="icon_phone" viewBox="0 0 401.998 401.998">
       <g> <path d="M401.129,311.475c-1.137-3.426-8.371-8.473-21.697-15.129c-3.61-2.098-8.754-4.949-15.41-8.566
		c-6.662-3.617-12.709-6.95-18.13-9.996c-5.432-3.045-10.521-5.995-15.276-8.846c-0.76-0.571-3.139-2.234-7.136-5
		c-4.001-2.758-7.375-4.805-10.14-6.14c-2.759-1.327-5.473-1.995-8.138-1.995c-3.806,0-8.56,2.714-14.268,8.135
		c-5.708,5.428-10.944,11.324-15.7,17.706c-4.757,6.379-9.802,12.275-15.126,17.7c-5.332,5.427-9.713,8.138-13.135,8.138
		c-1.718,0-3.86-0.479-6.427-1.424c-2.566-0.951-4.518-1.766-5.858-2.423c-1.328-0.671-3.607-1.999-6.845-4.004
		c-3.244-1.999-5.048-3.094-5.428-3.285c-26.075-14.469-48.438-31.029-67.093-49.676c-18.649-18.658-35.211-41.019-49.676-67.097
		c-0.19-0.381-1.287-2.19-3.284-5.424c-2-3.237-3.333-5.518-3.999-6.854c-0.666-1.331-1.475-3.283-2.425-5.852
		s-1.427-4.709-1.427-6.424c0-3.424,2.713-7.804,8.138-13.134c5.424-5.327,11.326-10.373,17.7-15.128
		c6.379-4.755,12.275-9.991,17.701-15.699c5.424-5.711,8.136-10.467,8.136-14.273c0-2.663-0.666-5.378-1.997-8.137
		c-1.332-2.765-3.378-6.139-6.139-10.138c-2.762-3.997-4.427-6.374-4.999-7.139c-2.852-4.755-5.799-9.846-8.848-15.271
		c-3.049-5.424-6.377-11.47-9.995-18.131c-3.615-6.658-6.468-11.799-8.564-15.415C98.986,9.233,93.943,1.997,90.516,0.859
		C89.183,0.288,87.183,0,84.521,0c-5.142,0-11.85,0.95-20.129,2.856c-8.282,1.903-14.799,3.899-19.558,5.996
		c-9.517,3.995-19.604,15.605-30.264,34.826C4.863,61.566,0.01,79.271,0.01,96.78c0,5.135,0.333,10.131,0.999,14.989
		c0.666,4.853,1.856,10.326,3.571,16.418c1.712,6.09,3.093,10.614,4.137,13.56c1.045,2.948,2.996,8.229,5.852,15.845
		c2.852,7.614,4.567,12.275,5.138,13.988c6.661,18.654,14.56,35.307,23.695,49.964c15.03,24.362,35.541,49.539,61.521,75.521
		c25.981,25.98,51.153,46.49,75.517,61.526c14.655,9.134,31.314,17.032,49.965,23.698c1.714,0.568,6.375,2.279,13.986,5.141
		c7.614,2.854,12.897,4.805,15.845,5.852c2.949,1.048,7.474,2.43,13.559,4.145c6.098,1.715,11.566,2.905,16.419,3.576
		c4.856,0.657,9.853,0.996,14.989,0.996c17.508,0,35.214-4.856,53.105-14.562c19.219-10.656,30.826-20.745,34.823-30.269
		c2.102-4.754,4.093-11.273,5.996-19.555c1.909-8.278,2.857-14.985,2.857-20.126C401.99,314.814,401.703,312.819,401.129,311.475z"/> </g>                
    </symbol>
    <symbol id="icon_pin" viewBox="0 0 438.536 438.536">
       <g> <path d="M322.621,42.825C294.073,14.272,259.619,0,219.268,0c-40.353,0-74.803,14.275-103.353,42.825
		c-28.549,28.549-42.825,63-42.825,103.353c0,20.749,3.14,37.782,9.419,51.106l104.21,220.986
		c2.856,6.276,7.283,11.225,13.278,14.838c5.996,3.617,12.419,5.428,19.273,5.428c6.852,0,13.278-1.811,19.273-5.428
		c5.996-3.613,10.513-8.562,13.559-14.838l103.918-220.986c6.282-13.324,9.424-30.358,9.424-51.106
		C365.449,105.825,351.176,71.378,322.621,42.825z M270.942,197.855c-14.273,14.272-31.497,21.411-51.674,21.411
		s-37.401-7.139-51.678-21.411c-14.275-14.277-21.414-31.501-21.414-51.678c0-20.175,7.139-37.402,21.414-51.675
		c14.277-14.275,31.504-21.414,51.678-21.414c20.177,0,37.401,7.139,51.674,21.414c14.274,14.272,21.413,31.5,21.413,51.675
		C292.355,166.352,285.217,183.575,270.942,197.855z"/> </g>                
    </symbol>
    <symbol id="icon_play" viewBox="0 0 93.665001 93.676003">
      <path d="m46.835 0c-25.826 0-46.835 21.009-46.835 46.841 0 25.826 21.009 46.835 46.835 46.835s46.83-21.009 46.83-46.835c0-25.832-21.004-46.841-46.83-46.841zm0 83.709c-20.36 0-36.875-16.508-36.875-36.868 0-20.369 16.515-36.874 36.875-36.874 20.361 0 36.873 16.505 36.873 36.874 0 20.36-16.512 36.868-36.873 36.868z"/><path d="m37.396 31.478c-0.829-0.833-2.949-0.833-2.949 0v33.845c0 0.834 2.125 0.834 2.957 0l27.781-15.417c0.832-0.829 0.846-2.178 0.016-3.01l-27.805-15.418z"/>
    </symbol>
    <symbol id="icon_police" viewBox="0 0 94.902214 90.800003">
       <g transform="translate(-2.5 -4.6)"> <circle cy="64.6" cx="75.3" r="5.3"/> <circle cy="64.6" cx="25.7" r="5.3"/> <path d="m22.1 51.2h56.8c1.2 0 2-1.2 1.5-2.2l-4.2-11c-0.4-1.4-1.7-2.3-3.1-2.3h-45.2c-1.4 0-2.7 0.9-3.1 2.3l-4.2 11c-0.5 1 0.3 2.2 1.5 2.2z"/> <path d="m90.2 44.7h-2.9l-4.2-10.9c-1.4-3.6-5-6-9-6h-16.7v-0.8c0-0.6-0.5-1.1-1.1-1.1h-0.3v-4.3c0-3.2-2.6-5.8-5.8-5.8h-0.4c-3.2 0-5.8 2.6-5.8 5.8v4.3h-0.2c-0.6 0-1.1 0.5-1.1 1.1v0.8h-15.9c-4 0-7.6 2.4-9 6l-4.2 10.9h-0.1-3.7c-4 0-7.3 3.3-7.3 7.3v1.9c0 3.7 2.7 6.7 6.2 7.2v15.6c0 2.4 0.9 4.7 2.5 6.5v4c0 4.5 3.7 8.2 8.2 8.2h8.1c4.2 0 7.6-3.1 8.1-7.2h29.7c0.5 4 3.9 7.2 8.1 7.2h8.1c4.5 0 8.2-3.7 8.2-8.2v-4c1.6-1.7 2.5-4 2.5-6.5v-15.9c3-0.9 5.2-3.7 5.2-7v-1.9c0.1-4-3.2-7.2-7.2-7.2zm-44.4-23c0-2.3 1.8-4.1 4.1-4.1h0.1v8.2h-4.2v-4.1zm-14.1 63.5v1.9c0 2.3-1.9 4.2-4.2 4.2h-8.1c-2.3 0-4.2-1.9-4.2-4.2v-4.2h16.5v2.3zm54.1 1.8c0 2.4-1.9 4.3-4.2 4.3h-8.1c-2.3 0-4.2-1.9-4.2-4.2v-2-2.3h16.5v4.2zm7.8-33.2h-0.1c0 1.8-1.5 3.3-3.3 3.3h-2.7c0.5 0.8 0.8 1.8 0.8 2.8v16.6c0 1.9-1 3.6-2.5 4.6h-70.6c-1.5-1-2.5-2.7-2.5-4.6v-16.5c0-1 0.3-2 0.8-2.8h-3.7c-1.8 0-3.3-1.5-3.3-3.3v-1.9c0-1.8 1.5-3.3 3.3-3.3h3.8c0.9 0 1.8 0.4 2.4 1l5.6-14.5c0.8-2.1 2.9-3.4 5.3-3.4h47.3c2.4 0 4.5 1.4 5.3 3.4l5.4 13.9c0.5-0.3 1-0.4 1.6-0.4h3.8c1.8 0 3.3 1.5 3.3 3.3v1.8z"/> <rect y="4.6" x="48.6" height="6.6" width="2.9"/> <rect transform="matrix(.7071 .7071 -.7071 .7071 25.214 -38.494)" height="6.6" width="2.9" y="7.9" x="57.6"/> <rect transform="matrix(.7071 .7071 -.7071 .7071 19.927 -25.732)" height="2.9" width="6.6" y="9.7" x="37.7"/> </g> 
    </symbol>
    <symbol id="icon_police2" viewBox="0 0 96 120">
      <path d="M24,86.05V93c0,1.657-1.343,3-3,3h-9c-1.657,0-3-1.343-3-3V82.262C7.116,81.133,6,79.734,6,78V66  c0-3.713,1.687-7.033,4.336-9.234C7.832,56.045,6,53.737,6,51c0-3.314,2.686-6,6-6h4l2-6c3-9,12-9,12-9c17.368,0,18.631,0,36,0  c0,0,9,0,12,9l2,6h4c3.314,0,6,2.686,6,6c0,2.737-1.832,5.045-4.336,5.766C88.313,58.967,90,62.287,90,66v12  c0,1.734-1.117,3.132-3,4.262V93c0,1.657-1.343,3-3,3h-9c-1.657,0-3-1.343-3-3v-6.95C63.358,87,53.67,87,48,87  S32.643,86.999,24,86.05L24,86.05z M66.803,15.075c-0.586,0.586-0.586,1.536,0,2.121c0.586,0.586,1.535,0.586,2.121,0l2.121-2.121  c0.586-0.586,0.586-1.535,0-2.121s-1.536-0.586-2.121,0L66.803,15.075L66.803,15.075z M73.5,24c0.828,0,1.5-0.672,1.5-1.5  S74.328,21,73.5,21h-3c-0.828,0-1.5,0.672-1.5,1.5s0.672,1.5,1.5,1.5H73.5L73.5,24z M63,13.5c0,0.828-0.672,1.5-1.5,1.5  S60,14.328,60,13.5v-3C60,9.672,60.672,9,61.5,9S63,9.672,63,10.5V13.5L63,13.5z M54,13.5c0,0.828-0.672,1.5-1.5,1.5  S51,14.328,51,13.5v-3C51,9.672,51.672,9,52.5,9S54,9.672,54,10.5V13.5L54,13.5z M45,13.5c0,0.828-0.672,1.5-1.5,1.5  S42,14.328,42,13.5v-3C42,9.672,42.672,9,43.5,9S45,9.672,45,10.5V13.5L45,13.5z M29.197,15.075c0.586,0.586,0.586,1.536,0,2.121  c-0.586,0.586-1.535,0.586-2.121,0l-2.121-2.121c-0.586-0.586-0.586-1.535,0-2.121s1.536-0.586,2.121,0L29.197,15.075L29.197,15.075  z M36,13.5c0,0.828-0.672,1.5-1.5,1.5S33,14.328,33,13.5v-3C33,9.672,33.672,9,34.5,9S36,9.672,36,10.5V13.5L36,13.5z M22.5,24  c-0.828,0-1.5-0.672-1.5-1.5s0.672-1.5,1.5-1.5h3c0.828,0,1.5,0.672,1.5,1.5S26.328,24,25.5,24H22.5L22.5,24z M61.5,18  c2.485,0,4.5,2.015,4.5,4.5v3c0,0.828-0.672,1.5-1.5,1.5h-33c-0.828,0-1.5-0.672-1.5-1.5v-3c0-2.485,2.015-4.5,4.5-4.5  C49.5,18,46.5,18,61.5,18L61.5,18z M79.838,54l-4.684-14.051c-0.936-2.809-2.711-4.894-5.44-6.068C68.713,33.451,67.112,33,66,33  c-12,0-24,0-36,0c-1.112,0-2.713,0.451-3.714,0.881c-2.728,1.173-4.503,3.258-5.44,6.068L16.162,54H18h3h54h3H79.838L79.838,54z   M61.5,72h-27c-0.828,0-1.5,0.672-1.5,1.5s0.672,1.5,1.5,1.5h27c0.828,0,1.5-0.672,1.5-1.5S62.328,72,61.5,72L61.5,72z M78,63  c-3.314,0-6,2.686-6,6s2.686,6,6,6s6-2.686,6-6S81.314,63,78,63L78,63z M18,63c-3.314,0-6,2.686-6,6s2.686,6,6,6s6-2.686,6-6  S21.314,63,18,63L18,63z M31.5,66c-0.828,0-1.5,0.672-1.5,1.5s0.672,1.5,1.5,1.5h33c0.828,0,1.5-0.672,1.5-1.5S65.328,66,64.5,66  H31.5z"/>
    </symbol>
    <symbol id="icon_price" viewBox="0 0 63.75 94.691284">
       <path d="m31.825 16.597c-8.1 0-14.6 6.6-14.6 14.6 0 8.1 6.6 14.6 14.6 14.6 8.1 0 14.6-6.6 14.6-14.6s-6.5-14.6-14.6-14.6zm1.1 18.4-3.3 3.3-3.3-3.3-3.2-3.2 3.3-3.3 3.2 3.2 7.6-7.6 3.3 3.3-7.6 7.6zm28.1-7.9c-1.3-1.2-1.8-3.1-1.1-4.7l0.6-1.5c1-2.3-0.3-4.9-2.7-5.6l-1.6-0.4c-1.7-0.5-2.9-2-3-3.8v-1.7c-0.1-2.5-2.4-4.3-4.8-3.9l-1.6 0.3c-1.8 0.3-3.5-0.5-4.3-2.1l-0.8-1.4c-1.2-2.2-4-2.8-6-1.4l-1.3 0.9c-1.4 1-3.4 1-4.8 0l-1.3-1c-2-1.5-4.9-0.8-6.1 1.4l-0.8 1.4c-0.9 1.6-2.6 2.4-4.4 2.1l-1.6-0.3c-2.5-0.4-4.7 1.4-4.9 3.9l-0.1 1.6c-0.1 1.8-1.3 3.3-3 3.8l-1.6 0.5c-2.4 0.7-3.7 3.3-2.7 5.6l0.6 1.5c0.7 1.6 0.2 3.5-1.1 4.7l-1.2 1.1c-1.9 1.6-1.9 4.6 0 6.2l1.2 1.1c1.3 1.2 1.8 3.1 1.1 4.7l-0.6 1.5c-1 2.3 0.3 4.9 2.7 5.6l1.6 0.4c1.7 0.5 2.9 2 3 3.8l0.1 1.6c0.1 2.5 2.4 4.3 4.8 3.9l1.6-0.3c1.8-0.3 3.5 0.5 4.3 2.1l0.8 1.4c1.2 2.2 4 2.8 6 1.4l1.3-0.9c1.4-1 3.4-1 4.8 0l1.3 1c2 1.5 4.9 0.8 6.1-1.4l0.8-1.4c0.9-1.6 2.6-2.4 4.4-2.1l1.6 0.3c2.5 0.4 4.7-1.4 4.9-3.9l0.1-1.6c0.1-1.8 1.3-3.3 3-3.8l1.6-0.4c2.4-0.7 3.7-3.3 2.7-5.6l-0.6-1.5c-0.7-1.6-0.2-3.5 1.1-4.7l1.2-1.1c1.9-1.6 1.9-4.6 0-6.2l-1.3-1.1zm-29.2 24.4c-11.2 0-20.2-9.1-20.2-20.2 0-11.2 9.1-20.2 20.2-20.2 11.2 0 20.2 9.1 20.2 20.2s-9 20.2-20.2 20.2zm-31.4 35.2 9.8-24.5c1.3 0.6 2.8 1 4.3 1 0.6 0 1.2-0.1 1.8-0.2h0.2l0.1 0.2c1.7 3.2 5.2 5.2 9 5.2 1 0 2.1-0.2 3-0.5l-10.3 25.9c-0.3 0.8-1.4 0.9-1.8 0.1l-4.9-8.6c-0.2-0.3-0.5-0.4-0.8-0.3l-9.2 2.9c-0.8 0.3-1.5-0.5-1.2-1.2zm44.9 7.4-10.4-26c1 0.3 2 0.5 3 0.5 3.8 0 7.2-2 9-5.3l0.1-0.2h0.2c0.6 0.1 1.2 0.2 1.8 0.2 1.6 0 3-0.4 4.4-1l9.8 24.7c0.3 0.8-0.4 1.6-1.2 1.3l-9.2-2.9c-0.3-0.1-0.6 0-0.8 0.3l-4.9 8.6c-0.4 0.6-1.5 0.5-1.8-0.2z"/> 
    </symbol>
    <symbol id="icon_right" viewBox="0 0 444.819 444.819">
       <g> <path d="M352.025,196.712L165.884,10.848C159.029,3.615,150.469,0,140.187,0c-10.282,0-18.842,3.619-25.697,10.848L92.792,32.264
		c-7.044,7.043-10.566,15.604-10.566,25.692c0,9.897,3.521,18.56,10.566,25.981l138.753,138.473L92.786,361.168
		c-7.042,7.043-10.564,15.604-10.564,25.693c0,9.896,3.521,18.562,10.564,25.98l21.7,21.413
		c7.043,7.043,15.612,10.564,25.697,10.564c10.089,0,18.656-3.521,25.697-10.564l186.145-185.864
		c7.046-7.423,10.571-16.084,10.571-25.981C362.597,212.321,359.071,203.755,352.025,196.712z"/> </g>                
    </symbol>
    <symbol id="icon_road" viewBox="0 0 90 90">
       <g transform="translate(-5,-5)"> <path d="m77.273 86.818c5.291 0 9.545-4.255 9.545-9.545s-4.255-9.545-9.545-9.545-9.545 4.255-9.545 9.545 4.254 9.545 9.545 9.545zm0-27.273c9.763 0 17.727 7.91 17.727 17.728s-7.964 17.727-17.727 17.727c-9.818 0-17.727-7.909-17.727-17.727s7.909-17.728 17.727-17.728z"/> <path d="m22.727 32.273c5.291 0 9.545-4.255 9.545-9.545s-4.255-9.545-9.545-9.545-9.545 4.255-9.545 9.545 4.254 9.545 9.545 9.545zm58.637 1.363v5.455c0 8.291-6.709 15-15 15h-32.728c-3.764 0-6.818 3.055-6.818 6.818v5.455c0 3.764 3.055 6.818 6.818 6.818h5.127l-3.927-3.927c-1.582-1.582-1.582-4.2 0-5.782s4.2-1.582 5.782 0l10.527 10.582c0.164 0.109 0.273 0.218 0.382 0.327 1.582 1.582 1.582 4.2 0 5.782l-10.909 10.909c-1.582 1.582-4.2 1.582-5.782 0s-1.582-4.2 0-5.782l3.927-3.927h-5.127c-8.291 0-15-6.709-15-15v-5.455c0-8.291 6.709-15 15-15h32.727c3.764 0 6.818-3.055 6.818-6.818v-5.455c0-3.764-3.055-6.818-6.818-6.818h-26.4c-1.8 7.855-8.891 13.636-17.236 13.636-9.818 0.001-17.727-7.909-17.727-17.727s7.909-17.727 17.727-17.727c8.345 0 15.436 5.782 17.236 13.636h26.4c8.292 0 15.001 6.709 15.001 15z"/> </g> 
    </symbol>
    <symbol id="icon_search" viewBox="0 0 475.084 475.084">
       <g> <path d="M464.524,412.846l-97.929-97.925c23.6-34.068,35.406-72.047,35.406-113.917c0-27.218-5.284-53.249-15.852-78.087
		c-10.561-24.842-24.838-46.254-42.825-64.241c-17.987-17.987-39.396-32.264-64.233-42.826
		C254.246,5.285,228.217,0.003,200.999,0.003c-27.216,0-53.247,5.282-78.085,15.847C98.072,26.412,76.66,40.689,58.673,58.676
		c-17.989,17.987-32.264,39.403-42.827,64.241C5.282,147.758,0,173.786,0,201.004c0,27.216,5.282,53.238,15.846,78.083
		c10.562,24.838,24.838,46.247,42.827,64.234c17.987,17.993,39.403,32.264,64.241,42.832c24.841,10.563,50.869,15.844,78.085,15.844
		c41.879,0,79.852-11.807,113.922-35.405l97.929,97.641c6.852,7.231,15.406,10.849,25.693,10.849
		c9.897,0,18.467-3.617,25.694-10.849c7.23-7.23,10.848-15.796,10.848-25.693C475.088,428.458,471.567,419.889,464.524,412.846z
		 M291.363,291.358c-25.029,25.033-55.148,37.549-90.364,37.549c-35.21,0-65.329-12.519-90.36-37.549
		c-25.031-25.029-37.546-55.144-37.546-90.36c0-35.21,12.518-65.334,37.546-90.36c25.026-25.032,55.15-37.546,90.36-37.546
		c35.212,0,65.331,12.519,90.364,37.546c25.033,25.026,37.548,55.15,37.548,90.36C328.911,236.214,316.392,266.329,291.363,291.358z
		"/> </g>                
    </symbol>
    <symbol id="icon_star" viewBox="0 0 475.075 475.075">
       <g> <path d="M475.075,186.573c0-7.043-5.328-11.42-15.992-13.135L315.766,152.6L251.529,22.694c-3.614-7.804-8.281-11.704-13.99-11.704
		c-5.708,0-10.372,3.9-13.989,11.704L159.31,152.6L15.986,173.438C5.33,175.153,0,179.53,0,186.573c0,3.999,2.38,8.567,7.139,13.706
		l103.924,101.068L86.51,444.096c-0.381,2.666-0.57,4.575-0.57,5.712c0,3.997,0.998,7.374,2.996,10.136
		c1.997,2.766,4.993,4.142,8.992,4.142c3.428,0,7.233-1.137,11.42-3.423l128.188-67.386l128.197,67.386
		c4.004,2.286,7.81,3.423,11.416,3.423c3.819,0,6.715-1.376,8.713-4.142c1.992-2.758,2.991-6.139,2.991-10.136
		c0-2.471-0.096-4.374-0.287-5.712l-24.555-142.749l103.637-101.068C472.604,195.33,475.075,190.76,475.075,186.573z"/> </g>                
    </symbol>
    <symbol id="icon_stop" viewBox="0 0 79.788002 79.788002">
       <path d="m67.071 51.217c-0.362 0.32-12.967-5.486-13.062-5.78-0.093-0.294 1.153-2.431 1.153-2.431-0.819 0.568-5.539-0.266-17.72-6.065-8.364-3.981-16.621-12.454-16.656-12.682-0.034-0.228 1.231-1.47 1.488-1.526 0.255-0.056 0.616 0.246 0.616 0.246s0.208-1.196 1.009-1.602c1.619-0.825 10.173 2.034 16.838 3.385 7.822 1.584 15.566-0.409 15.906-0.303 0.338 0.107 1.252 4.668 5.951 7.855 4.699 3.188 9.75 2.372 10.024 2.61 0.271 0.235 0.517 3.61-0.929 6.428-1.446 2.82-2.93 4.918-2.93 4.918s-0.22 1.135-0.402 1.652c-0.176 0.52-0.921 2.975-1.286 3.295z"/> <polygon points="30.038 55.621 50.996 62.441 50.996 67.438 20.39 67.438 20.39 55.621" transform="translate(-10.212,-10.439)"/> <rect transform="rotate(199.11)" height="2.8889" width="14.142" y="-36.41" x="-51.717"/> <polygon points="43.394 47.062 48.248 49.827 47.03 51.963 49.179 53.209 42.097 54.986 40.029 47.955 42.198 49.164" transform="translate(-10.212,-10.439)"/> <path d="m79.788 39.892c0 22.037-17.859 39.896-39.895 39.896-22.031 0-39.893-17.858-39.893-39.896 0-22.033 17.861-39.892 39.893-39.892 22.036-0.00099996 39.895 17.859 39.895 39.892zm-39.895-35.572c-19.646 0-35.572 15.928-35.572 35.572 0 19.647 15.926 35.571 35.572 35.571 19.647 0 35.572-15.924 35.572-35.571 0.001-19.644-15.924-35.572-35.572-35.572z"/> <polygon points="78.755 25.243 72.436 19.752 64.281 29.235 85.491 46.669 87.075 37.953" transform="translate(-10.212,-10.439)"/> 
    </symbol>
    <symbol id="icon_streamline" viewBox="0 0 48 48">
      <g id="Expanded"><g><g><path d="M24,48C10.767,48,0,37.233,0,24S10.767,0,24,0s24,10.767,24,24S37.233,48,24,48z M24,2C11.869,2,2,11.869,2,24     s9.869,22,22,22s22-9.869,22-22S36.131,2,24,2z"/></g><g><path d="M24,28c-2.206,0-4-1.794-4-4s1.794-4,4-4s4,1.794,4,4S26.206,28,24,28z M24,22c-1.103,0-2,0.897-2,2s0.897,2,2,2     s2-0.897,2-2S25.103,22,24,22z"/></g><g><path d="M26.122,22.879c-0.256,0-0.512-0.098-0.707-0.293c-0.391-0.391-0.391-1.023,0-1.414l9.899-9.899     c0.391-0.391,1.023-0.391,1.414,0s0.391,1.023,0,1.414l-9.899,9.899C26.633,22.781,26.377,22.879,26.122,22.879z"/></g><g><path d="M9,25H5c-0.552,0-1-0.447-1-1s0.448-1,1-1h4c0.552,0,1,0.447,1,1S9.552,25,9,25z"/></g><g><path d="M6.447,32.271c-0.393,0-0.765-0.232-0.924-0.617c-0.211-0.511,0.031-1.096,0.542-1.307l3.696-1.53     c0.509-0.213,1.095,0.03,1.306,0.541c0.211,0.511-0.031,1.096-0.542,1.307l-3.696,1.53C6.704,32.246,6.574,32.271,6.447,32.271z"/></g><g><path d="M41.552,32.271c-0.127,0-0.257-0.024-0.382-0.076l-3.695-1.531c-0.51-0.212-0.752-0.797-0.541-1.307     c0.211-0.511,0.797-0.754,1.307-0.541l3.695,1.531c0.51,0.212,0.752,0.797,0.541,1.307     C42.316,32.039,41.944,32.271,41.552,32.271z"/></g><g><path d="M42.999,25.001L42.999,25.001l-4-0.001c-0.552,0-1-0.448-1-1c0-0.553,0.448-1,1-1l0,0l4,0.001c0.553,0,1,0.448,1,1     C43.999,24.554,43.551,25.001,42.999,25.001z"/></g><g><path d="M37.858,19.26c-0.393,0-0.765-0.232-0.924-0.617c-0.211-0.511,0.031-1.096,0.542-1.307l3.695-1.529     c0.509-0.211,1.095,0.031,1.306,0.541c0.211,0.511-0.031,1.096-0.542,1.307l-3.695,1.529     C38.115,19.235,37.986,19.26,37.858,19.26z"/></g><g><path d="M29.74,11.142c-0.127,0-0.257-0.024-0.382-0.076c-0.51-0.212-0.752-0.797-0.541-1.307l1.531-3.694     c0.211-0.51,0.796-0.752,1.307-0.541c0.51,0.212,0.752,0.797,0.541,1.307l-1.531,3.694C30.504,10.909,30.132,11.142,29.74,11.142     z"/></g><g><path d="M24,10L24,10c-0.553,0-1-0.448-1-1l0.001-3.999c0-0.553,0.448-1,1-1l0,0c0.553,0,1,0.448,1,1L25,9     C25,9.553,24.552,10,24,10z"/></g><g><path d="M18.26,11.142c-0.393,0-0.765-0.232-0.924-0.617l-1.529-3.695c-0.211-0.511,0.031-1.096,0.542-1.307     c0.51-0.212,1.096,0.031,1.306,0.541l1.529,3.695c0.211,0.511-0.031,1.096-0.542,1.307C18.517,11.117,18.388,11.142,18.26,11.142     z"/></g><g><path d="M13.394,14.394c-0.256,0-0.512-0.098-0.708-0.293l-2.827-2.829c-0.39-0.391-0.39-1.024,0-1.414     c0.391-0.391,1.024-0.391,1.415,0l2.827,2.829c0.39,0.391,0.39,1.024,0,1.414C13.905,14.296,13.649,14.394,13.394,14.394z"/></g><g><path d="M10.142,19.26c-0.127,0-0.257-0.024-0.383-0.076l-3.695-1.532c-0.51-0.212-0.752-0.797-0.541-1.307     s0.795-0.753,1.307-0.541l3.695,1.532c0.51,0.212,0.752,0.797,0.541,1.307C10.906,19.027,10.534,19.26,10.142,19.26z"/></g><g><path d="M33,40H15c-0.552,0-1-0.447-1-1v-6c0-0.553,0.448-1,1-1h18c0.552,0,1,0.447,1,1v6C34,39.553,33.552,40,33,40z M16,38h16     v-4H16V38z"/></g></g></g>
    </symbol>
    <symbol id="icon_target" viewBox="0 0 90 90">
       <g transform="translate(-5,-5)"> <circle cy="50" cx="50" r="5"/> <path d="m50 35c8.3 0 15 6.7 15 15s-6.7 15-15 15-15-6.7-15-15 6.7-15 15-15m0-10c-13.8 0-25 11.2-25 25s11.2 25 25 25 25-11.2 25-25-11.2-25-25-25z"/> <path d="m50 15c19.3 0 35 15.7 35 35s-15.7 35-35 35-35-15.7-35-35 15.7-35 35-35m0-10c-24.8 0-45 20.2-45 45s20.2 45 45 45 45-20.2 45-45-20.2-45-45-45z"/> </g> 
    </symbol>
    <symbol id="icon_teacher" viewBox="0 0 90.022018 89.818008">
       <g transform="translate(-4.989 -5.0922)"> <path fill-rule="evenodd" clip-rule="evenodd" d="m94.905 33.278c-0.098-3.685-1.596-6.733-5.534-8.498-1.596-0.713-3.238-1.097-4.978-1.063-1.452 0.032-2.91 0.035-4.363-0.029-0.75-0.032-1.168 0.344-1.514 0.98-0.809 1.482-1.633 2.953-2.459 4.425-0.111 0.198-0.256 0.375-0.407 0.542-0.232 0.253-0.375 0.24-0.573-0.116-0.925-1.688-1.932-3.323-2.819-5.029-0.279-0.544-0.57-0.785-1.114-0.774-2.087 0.034-4.219-0.217-6.258 0.143-4.255 0.747-8.162 3.217-8.82 9.253-0.082 0.758-0.243 0.872-0.818 0.459-1.295-0.927-2.597-1.846-3.839-2.85-1.143-0.927-2.375-0.888-3.597-0.46-0.494 0.175-0.804 0.198-1.205-0.113-0.418-0.323-0.889-0.565-1.315-0.877-2.94-2.161-5.875-4.33-8.811-6.496-2.205-1.627-4.409-3.251-6.609-4.887-0.639-0.473-0.898-0.465-1.316 0.098-0.401 0.544-0.354 0.843 0.308 1.379 0.705 0.57 1.43 1.115 2.16 1.651 3.342 2.443 6.689 4.882 10.035 7.323 1.347 0.98 2.689 1.97 4.048 2.93 0.582 0.409 0.875 0.829 0.709 1.675-0.344 1.757 0.296 3.114 1.688 4.11 3.276 2.351 6.538 4.718 9.792 7.106 1.475 1.083 3.833 0.967 4.835-0.238 0.684-0.824 0.922-1.714 0.924-2.745 0.006-1.73-0.021-3.463 0.017-5.193 0.005-0.351 0.168-0.946 0.364-0.998 0.476-0.132 1.02-0.05 1.524 0.029 0.103 0.016 0.206 0.394 0.225 0.613 0.037 0.481 0.026 0.967 0.026 1.45-0.003 19.692-0.011 31.717-0.005 51.41 0 1.235-0.088 2.478 0.485 3.658 1.009 2.068 2.637 2.888 4.681 2.682 1.828-0.186 3.123-1.258 3.862-3.148 0.336-0.859 0.387-1.702 0.387-2.582 0.002-12.563 0.002-17.461 0.002-30.026 0-0.362 0.008-0.725 0.003-1.086-0.005-0.584 0.092-1.031 0.786-1.018 0.767 0.017 0.996 0.206 1.044 1.044 0.016 0.282 0.003 0.565 0.003 0.848 0 12.685 0.006 17.702-0.009 30.387-0.002 1.96 0.484 3.68 2.068 4.779 2.584 1.785 6 0.848 7.186-2.634 0.244-0.722 0.151-1.593 0.153-2.394 0.005-7.531 0-5.861-0.002-13.393-0.004-2.335 0-6.203-0.004-8.541v-30.685c0-0.161 0.011-0.325-0.005-0.483-0.068-0.716 0.201-1.03 0.888-1.012 0.866 0.019 1.025 0.111 1.063 0.975 0.028 0.685 0.008 1.369 0.008 2.053 0 5.479 0.008 10.955-0.011 16.43-0.002 1.092 0.256 2.04 0.875 2.909 1.48 2.082 4.49 1.688 5.608-0.341 0.398-0.725 0.651-1.654 0.656-2.491 0.051-7.047 0.16-14.101-0.028-21.141zm-38.319 13.089c-0.561-0.394-1.099-0.824-1.662-1.209-0.512-0.354-0.734-0.264-0.805 0.386-0.069 0.636-0.059 1.286-0.04 1.928 0.019 0.655-0.22 0.988-0.848 0.956-0.299-0.013-0.596 0.002-0.895 0.002h-41.874c-0.224 0-0.448-0.016-0.671-0.005-0.581 0.032-0.803-0.306-0.8-0.885 0.002-0.565 0-1.128 0-1.693 0.001-9.946 0.002-19.892 0.002-29.84 0-0.201-0.001-0.402 0-0.603 0.008-1.556 0.008-1.561 1.415-1.561 14.069 0 28.139 0 42.208 0.003 0.151 0 0.3-0.005 0.447 0.002 0.916 0.042 0.998 0.113 1.002 1.146 0.013 2.9 0.007 5.798 0.007 8.699 0 1.207-0.016 2.417 0.016 3.624 0.011 0.386 0.066 0.825 0.249 1.142 0.15 0.261 0.504 0.48 0.793 0.52 0.137 0.019 0.337-0.414 0.496-0.655 0.613-0.951 1.188-1.933 1.841-2.85 0.405-0.571 0.6-1.133 0.595-1.862-0.035-3.786-0.016-7.571-0.021-11.356-0.005-1.868-0.771-2.7-2.527-2.703-8.023-0.008-16.047-0.005-24.071-0.005-7.948 0-15.898 0.016-23.847-0.019-1.202-0.005-2.024 0.436-2.412 1.671-0.117 0.367-0.17 0.776-0.17 1.167-0.011 12.484 0 24.968-0.025 37.45-0.002 1.833 1.174 2.936 2.676 2.93 15.749-0.04 31.498-0.019 47.247-0.035 0.646-0.002 1.334-0.121 1.931-0.377 0.401-0.175 0.872-0.64 0.961-1.06 0.202-0.919 0.181-1.894 0.241-2.848 0.075-1.148-0.746-1.555-1.459-2.06zm19.03-24.138c4.107-0.003 7.995-3.696 7.785-8.654-0.02-5.272-3.609-8.421-7.909-8.482-3.862-0.056-7.764 2.977-7.832 8.611-0.058 4.852 3.727 8.527 7.956 8.525z"/> </g> 
    </symbol>
    <symbol id="icon_timer" viewBox="0 0 74.947998 90.010002">
       <g> <path d="m51.342 34.454-10.114 10.115c-1.14-0.538-2.41-0.847-3.755-0.847-4.884 0-8.841 3.959-8.841 8.844 0.001 4.883 3.958 8.843 8.842 8.844 4.884 0 8.841-3.959 8.839-8.844 0.002-1.344-0.309-2.612-0.844-3.753l10.116-10.116c1.171-1.171 1.172-3.071 0-4.243-1.171-1.172-3.071-1.172-4.243 0zm-11.055 20.928c-1.552 1.552-4.072 1.553-5.628-0.002-1.555-1.556-1.555-4.076-0.002-5.629 1.554-1.554 4.073-1.553 5.628 0.002s1.557 4.074 0.002 5.629z"/> <path d="m37.473 71.84c-1.234 0-2.239 0.998-2.239 2.225v3.619c0 1.228 1.005 2.227 2.239 2.227s2.238-0.999 2.238-2.227v-3.619c0-1.227-1.004-2.225-2.238-2.225z"/> <path d="m37.473 33.228c1.234 0 2.238-0.999 2.238-2.227v-3.619c0-1.227-1.004-2.225-2.238-2.225s-2.239 0.998-2.239 2.225v3.619c0 1.228 1.005 2.227 2.239 2.227z"/> <path d="m15.942 50.295h-3.619c-1.228 0-2.227 1.005-2.227 2.239s0.999 2.238 2.227 2.238h3.619c1.227 0 2.225-1.004 2.225-2.238s-0.999-2.239-2.225-2.239z"/> <path d="m62.623 50.295h-3.619c-1.228 0-2.227 1.005-2.227 2.239s0.999 2.238 2.227 2.238h3.619c1.227 0 2.225-1.004 2.225-2.238s-0.998-2.239-2.225-2.239z"/> <path d="m67.946 30.734 2.702-2.702c2.429-2.429 2.429-6.385-0.001-8.815-2.355-2.354-6.174-2.355-8.529 0.001l-2.844 2.844c-4.865-3.486-10.596-5.834-16.811-6.662v-5.479h3.447c2.739 0 4.96-2.221 4.96-4.961 0-2.739-2.221-4.96-4.96-4.96h-17.069v0.02c-2.647 0.104-4.766 2.268-4.766 4.94 0 2.673 2.118 4.837 4.766 4.941v0.02h3.642v5.477c-6.218 0.824-11.949 3.173-16.812 6.663l-2.7-2.7c-2.43-2.429-6.385-2.429-8.815 0.001-2.354 2.354-2.355 6.172 0.001 8.528l2.847 2.848c-4.404 6.152-7.004 13.687-7.004 21.829 0.015 20.68 16.786 37.443 37.473 37.443 20.697 0 37.475-16.779 37.475-37.476 0-8.134-2.6-15.657-7.002-21.8zm-56.966-4.704l-0.011 0.011 0.004-0.006 0.007-0.005zm26.493 57.88c-17.318 0-31.358-14.032-31.375-31.345 0-17.327 14.015-31.407 31.342-31.407 0.012 0 0.021-0.001 0.033-0.001 17.328 0 31.375
 14.047 31.375 31.376s-14.047 31.377-31.375 31.377z"/> </g> 
    </symbol>
    <symbol id="icon_timer2" viewBox="0 0 24 24">
      <path fill="none" stroke="#000000" stroke-width="2" stroke-linejoin="round" stroke-miterlimit="10" d="M21,13c0,5-4,9-9,9  c-5,0-9-4-9-9c0-5,4-9,9-9C17,4,21,8,21,13z"/><line fill="none" stroke="#000000" stroke-width="2" stroke-linejoin="round" stroke-miterlimit="10" x1="9" y1="1" x2="15" y2="1"/><line fill="none" stroke="#000000" stroke-width="2" stroke-linejoin="round" stroke-miterlimit="10" x1="12" y1="7" x2="12" y2="15"/><line fill="none" stroke="#000000" stroke-width="2" stroke-linejoin="round" stroke-miterlimit="10" x1="20.5" y1="4.5" x2="18.4" y2="6.6"/>
    </symbol>
    <symbol id="icon_truck" viewBox="0 0 79.988 100">
       <g id="g3342"> <path id="path4" d="M65.808,52.441l-1.007-14.968c-0.181-2.169-1.999-3.848-4.221-3.848H19.407c-2.221,0-4.04,1.678-4.232,3.848  l-0.98,14.968H65.808z M74.479,67.796c0-3.071-2.478-5.574-5.549-5.574c-3.07,0-5.575,2.503-5.575,5.574  c0,3.07,2.503,5.548,5.575,5.548S74.479,70.866,74.479,67.796 M58.247,76.13V62.105c0-1.395-1.136-2.528-2.529-2.528H24.167  c-1.354,0-2.49,1.134-2.49,2.528V76.13H58.247z M11.057,73.344c3.059,0,5.55-2.478,5.55-5.548c0-3.071-2.492-5.574-5.55-5.574  c-3.07,0-5.561,2.503-5.561,5.574C5.496,70.866,7.987,73.344,11.057,73.344 M60.581,29.69c4.259,0,7.769,3.304,8.116,7.486  l1.033,15.42L79.988,58.8l-0.026,26.053H75.38l0.026,8.517c0,3.689-2.981,6.631-6.658,6.631c-3.652,0-6.62-2.941-6.62-6.631v-8.517  H17.846l0.026,8.517c0,3.689-2.981,6.631-6.66,6.631c-3.65,0-6.619-2.941-6.619-6.631v-8.517H0.025L0,58.8l10.258-6.204l1.032-15.42  c0.323-4.182,3.833-7.486,8.117-7.486H60.581z"/> <path id="path6" d="M72.634,0c4.051,0,7.327,3.279,7.327,7.304v47.293l-6.748-4.143l-0.878-13.807  c-0.605-5.949-5.651-10.607-11.756-10.607H19.404c-6.127,0-11.135,4.658-11.742,10.607l-0.89,13.807L0,54.598L0.024,7.304  C0.024,3.279,3.301,0,7.328,0H72.634z"/> </g> 
    </symbol>
    <symbol id="icon_twitter" viewBox="0 0 449.956 449.956">
       <g> <path d="M449.956,85.657c-17.702,7.614-35.408,12.369-53.102,14.279c19.985-11.991,33.503-28.931,40.546-50.819
		c-18.281,10.847-37.787,18.268-58.532,22.267c-18.274-19.414-40.73-29.125-67.383-29.125c-25.502,0-47.246,8.992-65.24,26.98
		c-17.984,17.987-26.977,39.731-26.977,65.235c0,6.851,0.76,13.896,2.284,21.128c-37.688-1.903-73.042-11.372-106.068-28.407
		C82.46,110.158,54.433,87.46,31.403,59.101c-8.375,14.272-12.564,29.787-12.564,46.536c0,15.798,3.711,30.456,11.138,43.97
		c7.422,13.512,17.417,24.455,29.98,32.831c-14.849-0.572-28.743-4.475-41.684-11.708v1.142c0,22.271,6.995,41.824,20.983,58.674
		c13.99,16.848,31.645,27.453,52.961,31.833c-7.995,2.091-16.086,3.138-24.269,3.138c-5.33,0-11.136-0.475-17.416-1.42
		c5.9,18.459,16.75,33.633,32.546,45.535c15.799,11.896,33.691,18.028,53.677,18.418c-33.498,26.262-71.66,39.393-114.486,39.393
		c-8.186,0-15.607-0.373-22.27-1.139c42.827,27.596,90.03,41.394,141.612,41.394c32.738,0,63.478-5.181,92.21-15.557
		c28.746-10.369,53.297-24.267,73.665-41.686c20.362-17.415,37.925-37.448,52.674-60.097c14.75-22.651,25.738-46.298,32.977-70.946
		c7.23-24.653,10.848-49.344,10.848-74.092c0-5.33-0.096-9.325-0.287-11.991C421.785,120.202,437.202,104.306,449.956,85.657z"/> </g>                
    </symbol>
    <symbol id="icon_users" viewBox="0 0 90.000954 77.376152">
      <g transform="translate(-4.9998 -11.312)"><path d="m39.93 54.633c1.977-2.065 3.336-4.604 3.743-6.107 0.264-0.964 0.455-1.982 0.576-2.745 0.841-0.409 1.488-1.096 1.836-1.961 0.495-1.253 0.763-3.938 0.77-4.055 0.218-2.132-0.537-3.359-0.603-3.43 0.87-8.636-1.888-10.339-3.729-10.645-0.655-0.111-1.646-0.353-2.083-0.848-1.033-1.136-1.493-2.399-3.272-2.299-0.653 0.037-1.547-0.169-2.047-0.59-0.688-0.574-1.625-1.238-2.317-1.238-0.687 0-1.55 0.642-2.175 1.202-0.493 0.443-1.365 0.663-2.021 0.626-1.778-0.101-2.238 1.163-3.271 2.299-0.438 0.496-1.428 0.736-2.083 0.848-1.841 0.306-4.602 2.009-3.727 10.65-0.076 0.079-0.816 1.311-0.604 3.422 0.007 0.118 0.274 2.804 0.769 4.057 0.358 0.865 0.996 1.552 1.836 1.961 0.126 0.763 0.313 1.791 0.577 2.745 0.42 1.538 1.8 4.131 3.8 6.206h-0.046c-0.278 12.014-25.481 5.365-20.108 26.942 1.714 6.108 23.753 7.224 27.144 6.986 3.382 0.237 25.417-0.878 27.129-6.986 5.377-21.555-19.761-15.066-20.094-27.04z"/><path d="m74.174 45.25c15.205-2.963 11.301-28.714-2.18-33.672-1.104-0.287-3.024-0.531-4.944 0.332-1.917-0.863-3.837-0.619-4.944-0.332-13.487 4.961-17.389 30.731-2.157 33.676-0.597 6.771-10.052 6.759-16.02 10.556 0.655 1.4 2.546 2.388 6.644 4.063 5.863 2.397 14.318 5.864 13.904 17.01 1.176 0.031 2.083 0.028 2.58-0.007 3.387 0.233 25.472-0.852 27.188-6.81 5.304-20.706-19.01-13.876-20.071-24.816z"/></g>
    </symbol>
    <symbol id="icon_video" viewBox="0 0 50 32">
       <g stroke-miterlimit="10" transform="translate(0,-9)"> <polygon style="stroke:#ffea00;stroke-width:2;stroke-miterlimit:10;stroke-linecap:round;fill:none" points="36 21 36 29 49 36 49 14"/> <path style="stroke:#ffea00;stroke-width:2;stroke-miterlimit:10;stroke-linecap:round;fill:none" d="m36 36c0 2.209-1.791 4-4 4h-27c-2.209 0-4-1.791-4-4v-22c0-2.209 1.791-4 4-4h27c2.209 0 4 1.791 4 4v22z"/> </g> 
    </symbol>
    <symbol id="icon_vk" viewBox="0 0 548.358 548.358">
       <g> <path d="M545.451,400.298c-0.664-1.431-1.283-2.618-1.858-3.569c-9.514-17.135-27.695-38.167-54.532-63.102l-0.567-0.571
		l-0.284-0.28l-0.287-0.287h-0.288c-12.18-11.611-19.893-19.418-23.123-23.415c-5.91-7.614-7.234-15.321-4.004-23.13
		c2.282-5.9,10.854-18.36,25.696-37.397c7.807-10.089,13.99-18.175,18.556-24.267c32.931-43.78,47.208-71.756,42.828-83.939
		l-1.701-2.847c-1.143-1.714-4.093-3.282-8.846-4.712c-4.764-1.427-10.853-1.663-18.278-0.712l-82.224,0.568
		c-1.332-0.472-3.234-0.428-5.712,0.144c-2.475,0.572-3.713,0.859-3.713,0.859l-1.431,0.715l-1.136,0.859
		c-0.952,0.568-1.999,1.567-3.142,2.995c-1.137,1.423-2.088,3.093-2.848,4.996c-8.952,23.031-19.13,44.444-30.553,64.238
		c-7.043,11.803-13.511,22.032-19.418,30.693c-5.899,8.658-10.848,15.037-14.842,19.126c-4,4.093-7.61,7.372-10.852,9.849
		c-3.237,2.478-5.708,3.525-7.419,3.142c-1.715-0.383-3.33-0.763-4.859-1.143c-2.663-1.714-4.805-4.045-6.42-6.995
		c-1.622-2.95-2.714-6.663-3.285-11.136c-0.568-4.476-0.904-8.326-1-11.563c-0.089-3.233-0.048-7.806,0.145-13.706
		c0.198-5.903,0.287-9.897,0.287-11.991c0-7.234,0.141-15.085,0.424-23.555c0.288-8.47,0.521-15.181,0.716-20.125
		c0.194-4.949,0.284-10.185,0.284-15.705s-0.336-9.849-1-12.991c-0.656-3.138-1.663-6.184-2.99-9.137
		c-1.335-2.95-3.289-5.232-5.853-6.852c-2.569-1.618-5.763-2.902-9.564-3.856c-10.089-2.283-22.936-3.518-38.547-3.71
		c-35.401-0.38-58.148,1.906-68.236,6.855c-3.997,2.091-7.614,4.948-10.848,8.562c-3.427,4.189-3.905,6.475-1.431,6.851
		c11.422,1.711,19.508,5.804,24.267,12.275l1.715,3.429c1.334,2.474,2.666,6.854,3.999,13.134c1.331,6.28,2.19,13.227,2.568,20.837
		c0.95,13.897,0.95,25.793,0,35.689c-0.953,9.9-1.853,17.607-2.712,23.127c-0.859,5.52-2.143,9.993-3.855,13.418
		c-1.715,3.426-2.856,5.52-3.428,6.28c-0.571,0.76-1.047,1.239-1.425,1.427c-2.474,0.948-5.047,1.431-7.71,1.431
		c-2.667,0-5.901-1.334-9.707-4c-3.805-2.666-7.754-6.328-11.847-10.992c-4.093-4.665-8.709-11.184-13.85-19.558
		c-5.137-8.374-10.467-18.271-15.987-29.691l-4.567-8.282c-2.855-5.328-6.755-13.086-11.704-23.267
		c-4.952-10.185-9.329-20.037-13.134-29.554c-1.521-3.997-3.806-7.04-6.851-9.134l-1.429-0.859c-0.95-0.76-2.475-1.567-4.567-2.427
		c-2.095-0.859-4.281-1.475-6.567-1.854l-78.229,0.568c-7.994,0-13.418,1.811-16.274,5.428l-1.143,1.711
		C0.288,140.146,0,141.668,0,143.763c0,2.094,0.571,4.664,1.714,7.707c11.42,26.84,23.839,52.725,37.257,77.659
		c13.418,24.934,25.078,45.019,34.973,60.237c9.897,15.229,19.985,29.602,30.264,43.112c10.279,13.515,17.083,22.176,20.412,25.981
		c3.333,3.812,5.951,6.662,7.854,8.565l7.139,6.851c4.568,4.569,11.276,10.041,20.127,16.416
		c8.853,6.379,18.654,12.659,29.408,18.85c10.756,6.181,23.269,11.225,37.546,15.126c14.275,3.905,28.169,5.472,41.684,4.716h32.834
		c6.659-0.575,11.704-2.669,15.133-6.283l1.136-1.431c0.764-1.136,1.479-2.901,2.139-5.276c0.668-2.379,1-5,1-7.851
		c-0.195-8.183,0.428-15.558,1.852-22.124c1.423-6.564,3.045-11.513,4.859-14.846c1.813-3.33,3.859-6.14,6.136-8.418
		c2.282-2.283,3.908-3.666,4.862-4.142c0.948-0.479,1.705-0.804,2.276-0.999c4.568-1.522,9.944-0.048,16.136,4.429
		c6.187,4.473,11.99,9.996,17.418,16.56c5.425,6.57,11.943,13.941,19.555,22.124c7.617,8.186,14.277,14.271,19.985,18.274
		l5.708,3.426c3.812,2.286,8.761,4.38,14.853,6.283c6.081,1.902,11.409,2.378,15.984,1.427l73.087-1.14
		c7.229,0,12.854-1.197,16.844-3.572c3.998-2.379,6.373-5,7.139-7.851c0.764-2.854,0.805-6.092,0.145-9.712
		C546.782,404.25,546.115,401.725,545.451,400.298z"/> </g>                
    </symbol></svg>